# This file uses centimeters as units for non-parametric coordinates.

mtllib crystalscorner.mtl
g default
v -2.782890 -0.005087 11.161535
v -2.782890 -0.005087 11.071318
v -2.782890 0.353966 11.161535
v -2.782890 0.353966 11.071318
v -1.819974 0.353966 11.161535
v -1.819974 0.353966 11.071318
v -1.819974 -0.005087 11.161535
v -1.819974 -0.005087 11.071318
v -2.801432 0.174440 11.161535
v -1.801432 0.174440 11.161535
v -1.801432 0.174440 11.071318
v -2.801432 0.174440 11.071318
v -2.801432 0.032233 11.161535
v -1.801432 0.032233 11.161535
v -1.801432 0.032233 11.071318
v -2.801432 0.032233 11.071318
v -2.801432 0.316646 11.161535
v -1.801432 0.316646 11.161535
v -1.801432 0.316646 11.071318
v -2.801432 0.316646 11.071318
v -2.301432 0.326715 11.161535
v -2.301432 0.174440 11.161535
v -2.301432 0.022164 11.161535
v -2.301432 -0.015169 11.161535
v -2.301432 -0.015169 11.071318
v -2.301432 0.022164 11.071318
v -2.301432 0.326715 11.071318
v -2.301432 0.364048 11.071318
v -2.301432 0.364048 11.161535
v -2.769910 0.326715 11.161535
v -2.769910 0.174440 11.161535
v -2.769910 0.022164 11.161535
v -2.738932 -0.015169 11.161535
v -2.738932 -0.015169 11.071318
v -2.769910 0.022164 11.071318
v -2.769910 0.174440 11.071318
v -2.769910 0.326715 11.071318
v -2.738932 0.364048 11.071318
v -2.738932 0.364048 11.161535
v -1.832954 0.326715 11.161535
v -1.832954 0.174440 11.161535
v -1.832954 0.022164 11.161535
v -1.863932 -0.015169 11.161535
v -1.863932 -0.015169 11.071318
v -1.832954 0.022164 11.071318
v -1.832954 0.174440 11.071318
v -1.832954 0.326715 11.071318
v -1.863932 0.364048 11.071318
v -1.863932 0.364048 11.161535
v -2.301432 0.022164 11.129899
v -2.301432 0.174440 11.129899
v -1.832954 0.022164 11.129899
v -1.832954 0.174440 11.129899
v -2.301432 0.326715 11.129899
v -1.832954 0.326715 11.129899
v -2.769910 0.022164 11.129899
v -2.769910 0.174440 11.129899
v -2.769910 0.326715 11.129899
v -2.782890 -0.005087 11.161535
v -2.782890 -0.005087 11.071318
v -2.782890 0.353966 11.161535
v -2.782890 0.353966 11.071318
v -1.819974 0.353966 11.161535
v -1.819974 0.353966 11.071318
v -1.819974 -0.005087 11.161535
v -1.819974 -0.005087 11.071318
v -2.801432 0.174440 11.161535
v -1.801432 0.174440 11.161535
v -1.801432 0.174440 11.071318
v -2.801432 0.174440 11.071318
v -2.801432 0.032233 11.161535
v -1.801432 0.032233 11.161535
v -1.801432 0.032233 11.071318
v -2.801432 0.032233 11.071318
v -2.801432 0.316646 11.161535
v -1.801432 0.316646 11.161535
v -1.801432 0.316646 11.071318
v -2.801432 0.316646 11.071318
v -2.301432 0.326715 11.161535
v -2.301432 0.174440 11.161535
v -2.301432 0.022164 11.161535
v -2.301432 -0.015169 11.161535
v -2.301432 -0.015169 11.071318
v -2.301432 0.022164 11.071318
v -2.301432 0.326715 11.071318
v -2.301432 0.364048 11.071318
v -2.301432 0.364048 11.161535
v -2.769910 0.326715 11.161535
v -2.769910 0.174440 11.161535
v -2.769910 0.022164 11.161535
v -2.738932 -0.015169 11.161535
v -2.738932 -0.015169 11.071318
v -2.769910 0.022164 11.071318
v -2.769910 0.174440 11.071318
v -2.769910 0.326715 11.071318
v -2.738932 0.364048 11.071318
v -2.738932 0.364048 11.161535
v -1.832954 0.326715 11.161535
v -1.832954 0.174440 11.161535
v -1.832954 0.022164 11.161535
v -1.863932 -0.015169 11.161535
v -1.863932 -0.015169 11.071318
v -1.832954 0.022164 11.071318
v -1.832954 0.174440 11.071318
v -1.832954 0.326715 11.071318
v -1.863932 0.364048 11.071318
v -1.863932 0.364048 11.161535
v -2.301432 0.022164 11.129899
v -2.301432 0.174440 11.129899
v -1.832954 0.022164 11.129899
v -1.832954 0.174440 11.129899
v -2.301432 0.326715 11.129899
v -1.832954 0.326715 11.129899
v -2.769910 0.022164 11.129899
v -2.769910 0.174440 11.129899
v -2.769910 0.326715 11.129899
vt 0.565836 0.233984
vt 0.575057 0.228407
vt 0.568559 0.249058
vt 0.561947 0.254628
vt 0.666830 0.228407
vt 0.666830 0.249058
vt 0.561947 0.333290
vt 0.568559 0.333290
vt 0.758603 0.228407
vt 0.765101 0.249058
vt 0.561947 0.411953
vt 0.568559 0.417523
vt 0.767824 0.233984
vt 0.771713 0.254628
vt 0.575057 0.438174
vt 0.565836 0.432597
vt 0.771713 0.333290
vt 0.765101 0.333290
vt 0.666830 0.438174
vt 0.666830 0.417523
vt 0.771713 0.411953
vt 0.765101 0.417523
vt 0.758603 0.438174
vt 0.767824 0.432597
vt 0.544433 0.228407
vt 0.553654 0.233984
vt 0.557544 0.254628
vt 0.550932 0.249058
vt 0.550932 0.333290
vt 0.557544 0.333290
vt 0.452661 0.249058
vt 0.452661 0.228407
vt 0.452661 0.333290
vt 0.550932 0.417523
vt 0.557544 0.411953
vt 0.354389 0.249058
vt 0.360888 0.228407
vt 0.452661 0.417523
vt 0.354389 0.333290
vt 0.544433 0.438174
vt 0.553654 0.432597
vt 0.351667 0.233984
vt 0.347777 0.254628
vt 0.452661 0.438174
vt 0.354389 0.417523
vt 0.347777 0.333290
vt 0.360888 0.438174
vt 0.347777 0.411953
vt 0.351667 0.432597
vt 0.219444 0.797721
vt 0.219444 0.631100
vt 0.025053 0.631100
vt 0.025053 0.797721
vt 0.413836 0.797721
vt 0.413836 0.631100
vt 0.219444 0.964342
vt 0.025053 0.964342
vt 0.413836 0.964342
vt 0.877110 0.228407
vt 0.877110 0.438174
vt 0.785337 0.438174
vt 0.785337 0.228407
vt 0.968883 0.228407
vt 0.968883 0.438174
vt 0.776116 0.438174
vt 0.776116 0.228407
vt 0.978104 0.228407
vt 0.978104 0.438174
vt 0.568666 0.225543
vt 0.568666 0.015776
vt 0.660439 0.015776
vt 0.660439 0.225543
vt 0.476893 0.225543
vt 0.476893 0.015776
vt 0.669659 0.015776
vt 0.669659 0.225543
vt 0.467672 0.225543
vt 0.467672 0.015776
vt 0.573111 0.539309
vt 0.573111 0.637580
vt 0.436902 0.637580
vt 0.436902 0.539309
vt 0.573111 0.441038
vt 0.436902 0.441038
vt 0.714373 0.441038
vt 0.714373 0.539309
vt 0.578164 0.539309
vt 0.578164 0.441038
vt 0.714373 0.637580
vt 0.578164 0.637580
vt 0.263333 0.225543
vt 0.263333 0.015776
vt 0.283977 0.015776
vt 0.283977 0.225543
vt 0.362639 0.225543
vt 0.362639 0.015776
vt 0.441302 0.225543
vt 0.441302 0.015776
vt 0.461945 0.015776
vt 0.461945 0.225543
vt 0.852638 0.225543
vt 0.852638 0.015776
vt 0.873282 0.015776
vt 0.873282 0.225543
vt 0.773975 0.225543
vt 0.773975 0.015776
vt 0.695313 0.225543
vt 0.695313 0.015776
vt 0.674669 0.225543
vt 0.674669 0.015776
vt 0.855634 0.441038
vt 0.855634 0.525270
vt 0.719425 0.525270
vt 0.719425 0.441038
vt 0.855634 0.609503
vt 0.719425 0.609503
vt 0.978104 0.696600
vt 0.978104 0.780832
vt 0.841895 0.780832
vt 0.841895 0.696600
vt 0.978104 0.612367
vt 0.841895 0.612367
vt 0.263333 0.225543
vt 0.283977 0.225543
vt 0.263333 0.015776
vt 0.283977 0.015776
vt 0.467672 0.225543
vt 0.476893 0.225543
vt 0.467672 0.015776
vt 0.476893 0.015776
vt 0.852638 0.225543
vt 0.873282 0.225543
vt 0.852638 0.015776
vt 0.873282 0.015776
vt 0.968883 0.438174
vt 0.978104 0.438174
vt 0.968883 0.228407
vt 0.978104 0.228407
vt 0.575057 0.228407
vt 0.565836 0.233984
vt 0.568559 0.249058
vt 0.561947 0.254628
vt 0.544433 0.228407
vt 0.550932 0.249058
vt 0.553654 0.233984
vt 0.557544 0.254628
vt 0.550932 0.417523
vt 0.557544 0.411953
vt 0.550932 0.333290
vt 0.557544 0.333290
vt 0.773975 0.015776
vt 0.695313 0.015776
vt 0.773975 0.225543
vt 0.695313 0.225543
vt 0.561947 0.333290
vt 0.561947 0.411953
vt 0.568559 0.333290
vt 0.568559 0.417523
vt 0.441302 0.225543
vt 0.441302 0.015776
vt 0.362639 0.225543
vt 0.362639 0.015776
vt 0.544433 0.438174
vt 0.553654 0.432597
vt 0.674669 0.225543
vt 0.674669 0.015776
vt 0.565836 0.432597
vt 0.575057 0.438174
vt 0.461945 0.225543
vt 0.461945 0.015776
vt 0.452661 0.333290
vt 0.354389 0.333290
vt 0.452661 0.417523
vt 0.354389 0.417523
vt 0.452661 0.249058
vt 0.354389 0.249058
vt 0.452661 0.228407
vt 0.360888 0.228407
vt 0.877110 0.228407
vt 0.785337 0.228407
vt 0.877110 0.438174
vt 0.785337 0.438174
vt 0.666830 0.228407
vt 0.666830 0.249058
vt 0.758603 0.228407
vt 0.765101 0.249058
vt 0.219444 0.797721
vt 0.025053 0.797721
vt 0.219444 0.631100
vt 0.025053 0.631100
vt 0.219444 0.964342
vt 0.025053 0.964342
vt 0.666830 0.438174
vt 0.758603 0.438174
vt 0.666830 0.417523
vt 0.765101 0.417523
vt 0.568666 0.225543
vt 0.660439 0.225543
vt 0.568666 0.015776
vt 0.660439 0.015776
vt 0.360888 0.438174
vt 0.452661 0.438174
vt 0.413836 0.797721
vt 0.413836 0.631100
vt 0.413836 0.964342
vt 0.347777 0.333290
vt 0.347777 0.411953
vt 0.347777 0.254628
vt 0.351667 0.233984
vt 0.776116 0.438174
vt 0.776116 0.228407
vt 0.767824 0.233984
vt 0.771713 0.254628
vt 0.765101 0.333290
vt 0.771713 0.333290
vt 0.771713 0.411953
vt 0.767824 0.432597
vt 0.669659 0.225543
vt 0.669659 0.015776
vt 0.351667 0.432597
vt 0.573111 0.539309
vt 0.436902 0.539309
vt 0.573111 0.637580
vt 0.436902 0.637580
vt 0.855634 0.441038
vt 0.719425 0.441038
vt 0.855634 0.525270
vt 0.719425 0.525270
vt 0.855634 0.609503
vt 0.719425 0.609503
vt 0.714373 0.441038
vt 0.578164 0.441038
vt 0.714373 0.539309
vt 0.578164 0.539309
vt 0.978104 0.696600
vt 0.841895 0.696600
vt 0.978104 0.780832
vt 0.841895 0.780832
vt 0.573111 0.441038
vt 0.436902 0.441038
vt 0.978104 0.612367
vt 0.841895 0.612367
vt 0.714373 0.637580
vt 0.578164 0.637580
vn -0.895553 -0.444955 0.000000
vn -0.994708 -0.102739 0.000000
vn -0.895551 -0.444959 0.000000
vn -0.994708 -0.102739 0.000000
vn -0.223555 0.974691 0.000000
vn -0.020936 0.999781 0.000000
vn -0.223552 0.974692 0.000000
vn -0.020936 0.999781 0.000000
vn 0.994709 -0.102737 0.000000
vn 0.895555 -0.444952 0.000000
vn 0.994708 -0.102739 0.000000
vn 0.895550 -0.444961 0.000000
vn -0.020936 -0.999781 0.000000
vn -0.223553 -0.974692 0.000000
vn -0.020936 -0.999781 0.000000
vn -0.223552 -0.974692 0.000000
vn 0.000000 0.000000 -1.000000
vn -0.000020 0.000000 -1.000000
vn -0.000004 0.000000 -1.000000
vn -0.000005 0.000000 -1.000000
vn 0.000000 0.000000 1.000000
vn 0.000001 0.000000 1.000000
vn 0.000007 0.000000 1.000000
vn 0.000023 0.000000 1.000000
vn 0.000002 0.000000 1.000000
vn 0.000041 0.000000 1.000000
vn 0.000000 0.000000 1.000000
vn 0.000000 0.000000 1.000000
vn 1.000000 0.000000 0.000000
vn 0.994708 0.102738 0.000000
vn 1.000000 0.000000 0.000000
vn 0.994708 0.102739 0.000000
vn 0.000000 0.000000 -1.000000
vn -0.000002 0.000000 -1.000000
vn 0.000000 0.000000 -1.000000
vn -0.000002 0.000000 -1.000000
vn -0.994708 0.102739 0.000000
vn -0.994708 0.102739 0.000000
vn -1.000000 0.000000 0.000000
vn -1.000000 0.000000 0.000000
vn 0.000000 0.000000 1.000000
vn 0.000000 0.000000 1.000000
vn 0.895553 0.444955 0.000000
vn 0.895553 0.444955 0.000000
vn -0.000010 0.000000 -1.000000
vn 0.000000 0.000000 -1.000000
vn -0.895552 0.444956 0.000000
vn -0.895550 0.444961 0.000000
vn 0.000000 0.000000 1.000000
vn -0.000000 0.000000 1.000000
vn 0.000000 0.000000 1.000000
vn -0.000002 0.000000 1.000000
vn 0.000000 0.000000 1.000000
vn -0.000002 0.000000 1.000000
vn 0.000000 0.000000 1.000000
vn 0.000000 0.000000 1.000000
vn 0.000000 -1.000000 0.000000
vn 0.020936 -0.999781 0.000000
vn 0.000000 -1.000000 0.000000
vn 0.020936 -0.999781 0.000000
vn 0.000000 0.000000 -1.000000
vn 0.000000 0.000000 -1.000000
vn 0.000000 0.000000 -1.000000
vn 0.000005 0.000000 -1.000000
vn 0.000000 0.000000 -1.000000
vn 0.000000 0.000000 -1.000000
vn 0.000000 0.000000 -1.000000
vn 0.000000 0.000000 -1.000000
vn 0.000000 0.000000 -1.000000
vn 0.000000 0.000000 -1.000000
vn 0.000000 0.000000 -1.000000
vn 0.000000 0.000000 -1.000000
vn 0.000000 0.000000 -1.000000
vn 0.000004 0.000000 -1.000000
vn 0.000000 1.000000 0.000000
vn 0.020936 0.999781 0.000000
vn 0.000000 1.000000 0.000000
vn 0.020936 0.999781 0.000000
vn 0.000000 0.000000 1.000000
vn 0.000000 0.000000 1.000000
vn 0.000000 0.000000 -1.000000
vn 0.000000 0.000000 -1.000000
vn 0.000000 0.000000 -1.000000
vn 0.000000 0.000000 1.000000
vn -0.000039 0.000000 1.000000
vn -0.000041 0.000000 1.000000
vn 0.000000 0.000000 1.000000
vn 0.223555 -0.974691 0.000000
vn 0.223552 -0.974692 0.000000
vn 0.000020 0.000000 -1.000000
vn 0.000010 0.000000 -1.000000
vn 0.000000 0.000000 -1.000000
vn 0.000000 0.000000 -1.000000
vn 0.000005 0.000000 -1.000000
vn 0.000020 0.000000 -1.000000
vn 0.223553 0.974692 0.000000
vn 0.223552 0.974692 0.000000
vn 0.000005 0.000000 1.000000
vn 0.000000 1.000000 0.000000
vn 0.000000 1.000000 0.000000
vn 0.000000 1.000000 0.000000
vn 0.000000 1.000000 0.000000
vn -1.000000 0.000000 0.000000
vn -1.000000 0.000000 0.000000
vn -1.000000 0.000000 0.000000
vn -1.000000 0.000000 0.000000
vn -1.000000 0.000000 0.000000
vn -1.000000 0.000000 0.000000
vn -1.000000 0.000000 0.000000
vn -1.000000 0.000000 0.000000
vn 0.000000 -1.000000 0.000000
vn 0.000000 -1.000000 0.000000
vn 0.000000 -1.000000 0.000000
vn 0.000000 -1.000000 0.000000
vn 1.000000 0.000000 0.000000
vn 1.000000 0.000000 0.000000
vn 1.000000 0.000000 0.000000
vn 1.000000 0.000000 0.000000
vn 0.000000 1.000000 0.000000
vn 0.000000 1.000000 0.000000
vn 0.000000 1.000000 0.000000
vn 0.000000 1.000000 0.000000
vn 1.000000 0.000000 0.000000
vn 1.000000 0.000000 0.000000
vn 1.000000 0.000000 0.000000
vn 1.000000 0.000000 0.000000
vn 0.000000 -1.000000 0.000000
vn 0.000000 -1.000000 0.000000
vn 0.000000 -1.000000 0.000000
vn 0.000000 -1.000000 0.000000
vn 0.895553 0.444955 0.000000
vn 0.895551 0.444959 0.000000
vn 0.994708 0.102739 0.000000
vn 0.994708 0.102739 0.000000
vn 0.223555 -0.974691 0.000000
vn 0.223552 -0.974692 0.000000
vn 0.020936 -0.999781 0.000000
vn 0.020936 -0.999781 0.000000
vn -0.994709 0.102737 0.000000
vn -0.994708 0.102739 0.000000
vn -0.895555 0.444952 0.000000
vn -0.895550 0.444961 0.000000
vn 0.020936 0.999781 0.000000
vn 0.020936 0.999781 0.000000
vn 0.223553 0.974692 0.000000
vn 0.223552 0.974692 0.000000
vn 0.000000 0.000000 1.000000
vn 0.000000 0.000000 1.000000
vn 0.000000 0.000000 1.000000
vn 0.000000 0.000000 1.000000
vn 0.000000 0.000000 -1.000000
vn 0.000005 0.000000 -1.000000
vn -0.000002 0.000000 -1.000000
vn -0.000039 0.000000 -1.000000
vn -0.000001 0.000000 -1.000000
vn -0.000000 0.000000 -1.000000
vn -0.000023 0.000000 -1.000000
vn 0.000000 0.000000 -1.000000
vn -1.000000 0.000000 0.000000
vn -1.000000 0.000000 0.000000
vn -0.994708 -0.102738 0.000000
vn -0.994708 -0.102739 0.000000
vn 0.000000 0.000000 1.000000
vn 0.000000 0.000000 1.000000
vn 0.000005 0.000000 1.000000
vn 0.000002 0.000000 1.000000
vn 0.994708 -0.102739 0.000000
vn 1.000000 0.000000 0.000000
vn 0.994708 -0.102739 0.000000
vn 1.000000 0.000000 0.000000
vn -0.000000 0.000000 -1.000000
vn -0.000007 0.000000 -1.000000
vn -0.895553 -0.444955 0.000000
vn -0.895553 -0.444955 0.000000
vn 0.000000 0.000000 1.000000
vn 0.000000 0.000000 1.000000
vn 0.895552 -0.444956 0.000000
vn 0.895550 -0.444961 0.000000
vn 0.000000 0.000000 -1.000000
vn 0.000000 0.000000 -1.000000
vn 0.000000 0.000000 -1.000000
vn 0.000001 0.000000 -1.000000
vn 0.000000 0.000000 -1.000000
vn 0.000002 0.000000 -1.000000
vn 0.000000 0.000000 -1.000000
vn 0.000000 0.000000 -1.000000
vn 0.000000 1.000000 0.000000
vn 0.000000 1.000000 0.000000
vn -0.020936 0.999781 0.000000
vn -0.020936 0.999781 0.000000
vn 0.000000 0.000000 1.000000
vn 0.000000 0.000000 1.000000
vn 0.000000 0.000000 1.000000
vn -0.000002 0.000000 1.000000
vn 0.000000 0.000000 1.000000
vn 0.000000 0.000000 1.000000
vn 0.000000 0.000000 1.000000
vn 0.000000 0.000000 1.000000
vn 0.000000 0.000000 1.000000
vn 0.000000 0.000000 1.000000
vn 0.000000 0.000000 1.000000
vn 0.000000 0.000000 1.000000
vn 0.000000 0.000000 1.000000
vn 0.000000 0.000000 1.000000
vn 0.000000 -1.000000 0.000000
vn 0.000000 -1.000000 0.000000
vn -0.020936 -0.999781 0.000000
vn -0.020936 -0.999781 0.000000
vn 0.000000 0.000000 -1.000000
vn 0.000000 0.000000 -1.000000
vn 0.000000 0.000000 1.000000
vn 0.000000 0.000000 1.000000
vn 0.000000 0.000000 1.000000
vn 0.000000 0.000000 -1.000000
vn 0.000023 0.000000 -1.000000
vn 0.000041 0.000000 -1.000000
vn 0.000007 0.000000 -1.000000
vn -0.223555 0.974691 0.000000
vn -0.223552 0.974692 0.000000
vn -0.000010 0.000000 1.000000
vn -0.000002 0.000000 1.000000
vn 0.000000 0.000000 1.000000
vn 0.000000 0.000000 1.000000
vn 0.000000 0.000000 1.000000
vn 0.000000 0.000000 1.000000
vn -0.223553 -0.974692 0.000000
vn -0.223552 -0.974692 0.000000
vn 0.000007 0.000000 -1.000000
vn 0.000000 -1.000000 0.000000
vn 0.000000 -1.000000 0.000000
vn 0.000000 -1.000000 0.000000
vn 0.000000 -1.000000 0.000000
vn 1.000000 0.000000 0.000000
vn 1.000000 0.000000 0.000000
vn 1.000000 0.000000 0.000000
vn 1.000000 0.000000 0.000000
vn 1.000000 0.000000 0.000000
vn 1.000000 0.000000 0.000000
vn 1.000000 0.000000 0.000000
vn 1.000000 0.000000 0.000000
vn 0.000000 1.000000 0.000000
vn 0.000000 1.000000 0.000000
vn 0.000000 1.000000 0.000000
vn 0.000000 1.000000 0.000000
vn -1.000000 0.000000 0.000000
vn -1.000000 0.000000 0.000000
vn -1.000000 0.000000 0.000000
vn -1.000000 0.000000 0.000000
vn 0.000000 -1.000000 0.000000
vn 0.000000 -1.000000 0.000000
vn 0.000000 -1.000000 0.000000
vn 0.000000 -1.000000 0.000000
vn -1.000000 0.000000 0.000000
vn -1.000000 0.000000 0.000000
vn -1.000000 0.000000 0.000000
vn -1.000000 0.000000 0.000000
vn 0.000000 1.000000 0.000000
vn 0.000000 1.000000 0.000000
vn 0.000000 1.000000 0.000000
vn 0.000000 1.000000 0.000000
g pCube43
usemtl crystalsCornerSG
f 1/91/1 13/94/2 2/92/3
f 13/94/2 16/93/4 2/92/3
f 3/77/5 39/73/6 4/78/7
f 39/73/6 38/74/8 4/78/7
f 14/101/9 7/104/10 15/102/11
f 7/104/10 8/103/12 15/102/11
f 33/64/13 1/68/14 34/63/15
f 1/68/14 2/67/16 34/63/15
f 34/2/17 2/1/18 35/3/19
f 2/1/18 16/4/20 35/3/19
f 33/25/21 32/28/22 1/26/23
f 32/28/22 13/27/24 1/26/23
f 30/34/25 17/35/26 31/29/27
f 17/35/26 9/30/28 31/29/27
f 11/106/29 19/108/30 10/105/31
f 19/108/30 18/107/32 10/105/31
f 12/7/33 20/11/34 36/8/35
f 20/11/34 37/12/36 36/8/35
f 17/97/37 20/98/38 9/95/39
f 20/98/38 12/96/40 9/95/39
f 32/28/22 31/29/27 13/27/24
f 31/29/27 9/30/28 13/27/24
f 15/102/11 11/106/29 14/101/9
f 11/106/29 10/105/31 14/101/9
f 12/7/33 36/8/35 16/4/20
f 36/8/35 35/3/19 16/4/20
f 9/95/39 12/96/40 13/94/2
f 12/96/40 16/93/4 13/94/2
f 39/40/41 3/41/42 30/34/25
f 3/41/42 17/35/26 30/34/25
f 5/109/43 18/107/32 6/110/44
f 18/107/32 19/108/30 6/110/44
f 20/11/34 4/16/45 37/12/36
f 4/16/45 38/15/46 37/12/36
f 17/97/37 3/100/47 20/98/38
f 3/100/47 4/99/48 20/98/38
f 22/33/49 41/39/50 21/38/51
f 41/39/50 40/45/52 21/38/51
f 23/31/53 42/36/54 22/33/49
f 42/36/54 41/39/50 22/33/49
f 24/32/55 43/37/56 23/31/53
f 43/37/56 42/36/54 23/31/53
f 25/59/57 44/62/58 24/60/59
f 44/62/58 43/61/60 24/60/59
f 25/5/61 26/6/62 44/9/63
f 26/6/62 45/10/64 44/9/63
f 51/50/65 53/53/66 50/51/67
f 53/53/66 52/52/68 50/51/67
f 54/56/69 55/57/70 51/50/65
f 55/57/70 53/53/66 51/50/65
f 28/19/71 48/23/72 27/20/73
f 48/23/72 47/22/74 27/20/73
f 29/69/75 49/72/76 28/70/77
f 49/72/76 48/71/78 28/70/77
f 40/45/52 49/47/79 21/38/51
f 49/47/79 29/44/80 21/38/51
f 22/33/49 21/38/51 31/29/27
f 21/38/51 30/34/25 31/29/27
f 23/31/53 22/33/49 32/28/22
f 22/33/49 31/29/27 32/28/22
f 32/28/22 33/25/21 23/31/53
f 33/25/21 24/32/55 23/31/53
f 34/63/15 25/59/57 33/64/13
f 25/59/57 24/60/59 33/64/13
f 35/3/19 26/6/62 34/2/17
f 26/6/62 25/5/61 34/2/17
f 57/54/81 51/50/65 56/55/82
f 51/50/65 50/51/67 56/55/82
f 58/58/83 54/56/69 57/54/81
f 54/56/69 51/50/65 57/54/81
f 28/19/71 27/20/73 38/15/46
f 27/20/73 37/12/36 38/15/46
f 29/69/75 28/70/77 39/73/6
f 28/70/77 38/74/8 39/73/6
f 30/34/25 21/38/51 39/40/41
f 21/38/51 29/44/80 39/40/41
f 10/46/84 18/48/85 41/39/50
f 18/48/85 40/45/52 41/39/50
f 10/46/84 41/39/50 14/43/86
f 41/39/50 42/36/54 14/43/86
f 43/37/56 7/42/87 42/36/54
f 7/42/87 14/43/86 42/36/54
f 7/65/88 43/61/60 8/66/89
f 43/61/60 44/62/58 8/66/89
f 44/9/63 45/10/64 8/13/90
f 45/10/64 15/14/91 8/13/90
f 45/10/64 46/18/92 15/14/91
f 46/18/92 11/17/93 15/14/91
f 11/17/93 46/18/92 19/21/94
f 46/18/92 47/22/74 19/21/94
f 48/23/72 6/24/95 47/22/74
f 6/24/95 19/21/94 47/22/74
f 49/72/76 5/76/96 48/71/78
f 5/76/96 6/75/97 48/71/78
f 18/48/85 5/49/98 40/45/52
f 5/49/98 49/47/79 40/45/52
f 26/79/99 50/82/100 45/80/101
f 50/82/100 52/81/102 45/80/101
f 45/111/103 52/114/104 46/112/105
f 52/114/104 53/113/106 46/112/105
f 46/112/107 53/113/108 47/115/109
f 53/113/108 55/116/110 47/115/109
f 47/85/111 55/88/112 27/86/113
f 55/88/112 54/87/114 27/86/113
f 36/117/115 57/120/116 35/118/117
f 57/120/116 56/119/118 35/118/117
f 35/83/119 56/84/120 26/79/121
f 56/84/120 50/82/122 26/79/121
f 37/121/123 58/122/124 36/117/125
f 58/122/124 57/120/126 36/117/125
f 27/86/127 54/87/128 37/89/129
f 54/87/128 58/90/130 37/89/129
f 59/123/131 60/125/132 71/124/133
f 71/124/133 60/125/132 74/126/134
f 61/127/135 62/129/136 97/128/137
f 97/128/137 62/129/136 96/130/138
f 72/131/139 73/133/140 65/132/141
f 65/132/141 73/133/140 66/134/142
f 91/135/143 92/137/144 59/136/145
f 59/136/145 92/137/144 60/138/146
f 92/139/147 93/141/148 60/140/149
f 60/140/149 93/141/148 74/142/150
f 91/143/151 59/145/152 90/144/153
f 90/144/153 59/145/152 71/146/154
f 88/147/155 89/149/156 75/148/157
f 75/148/157 89/149/156 67/150/158
f 69/151/159 68/153/160 77/152/161
f 77/152/161 68/153/160 76/154/162
f 70/155/163 94/157/164 78/156/165
f 78/156/165 94/157/164 95/158/166
f 75/159/167 67/161/168 78/160/169
f 78/160/169 67/161/168 70/162/170
f 90/144/153 71/146/154 89/149/156
f 89/149/156 71/146/154 67/150/158
f 73/133/140 72/131/139 69/151/159
f 69/151/159 72/131/139 68/153/160
f 70/155/163 74/142/150 94/157/164
f 94/157/164 74/142/150 93/141/148
f 67/161/168 71/124/133 70/162/170
f 70/162/170 71/124/133 74/126/134
f 97/163/171 88/147/155 61/164/172
f 61/164/172 88/147/155 75/148/157
f 63/165/173 64/166/174 76/154/162
f 76/154/162 64/166/174 77/152/161
f 78/156/165 95/158/166 62/167/175
f 62/167/175 95/158/166 96/168/176
f 75/159/167 78/160/169 61/169/177
f 61/169/177 78/160/169 62/170/178
f 80/171/179 79/173/180 99/172/181
f 99/172/181 79/173/180 98/174/182
f 81/175/183 80/171/179 100/176/184
f 100/176/184 80/171/179 99/172/181
f 82/177/185 81/175/183 101/178/186
f 101/178/186 81/175/183 100/176/184
f 83/179/187 82/181/188 102/180/189
f 102/180/189 82/181/188 101/182/190
f 83/183/191 102/185/192 84/184/193
f 84/184/193 102/185/192 103/186/194
f 109/187/195 108/189/196 111/188/197
f 111/188/197 108/189/196 110/190/198
f 112/191/199 109/187/195 113/192/200
f 113/192/200 109/187/195 111/188/197
f 86/193/201 85/195/202 106/194/203
f 106/194/203 85/195/202 105/196/204
f 87/197/205 86/199/206 107/198/207
f 107/198/207 86/199/206 106/200/208
f 98/174/182 79/173/180 107/201/209
f 107/201/209 79/173/180 87/202/210
f 80/171/179 89/149/156 79/173/180
f 79/173/180 89/149/156 88/147/155
f 81/175/183 90/144/153 80/171/179
f 80/171/179 90/144/153 89/149/156
f 90/144/153 81/175/183 91/143/151
f 91/143/151 81/175/183 82/177/185
f 92/137/144 91/135/143 83/179/187
f 83/179/187 91/135/143 82/181/188
f 93/141/148 92/139/147 84/184/193
f 84/184/193 92/139/147 83/183/191
f 115/203/211 114/204/212 109/187/195
f 109/187/195 114/204/212 108/189/196
f 116/205/213 115/203/211 112/191/199
f 112/191/199 115/203/211 109/187/195
f 86/193/201 96/168/176 85/195/202
f 85/195/202 96/168/176 95/158/166
f 87/197/205 97/128/137 86/199/206
f 86/199/206 97/128/137 96/130/138
f 88/147/155 97/163/171 79/173/180
f 79/173/180 97/163/171 87/202/210
f 68/206/214 99/172/181 76/207/215
f 76/207/215 99/172/181 98/174/182
f 68/206/214 72/208/216 99/172/181
f 99/172/181 72/208/216 100/176/184
f 101/178/186 100/176/184 65/209/217
f 65/209/217 100/176/184 72/208/216
f 65/210/218 66/211/219 101/182/190
f 101/182/190 66/211/219 102/180/189
f 102/185/192 66/212/220 103/186/194
f 103/186/194 66/212/220 73/213/221
f 103/186/194 73/213/221 104/214/222
f 104/214/222 73/213/221 69/215/223
f 69/215/223 77/216/224 104/214/222
f 104/214/222 77/216/224 105/196/204
f 106/194/203 105/196/204 64/217/225
f 64/217/225 105/196/204 77/216/224
f 107/198/207 106/200/208 63/218/226
f 63/218/226 106/200/208 64/219/227
f 76/207/215 98/174/182 63/220/228
f 63/220/228 98/174/182 107/201/209
f 84/221/229 103/223/230 108/222/231
f 108/222/231 103/223/230 110/224/232
f 103/225/233 104/227/234 110/226/235
f 110/226/235 104/227/234 111/228/236
f 104/227/237 105/229/238 111/228/239
f 111/228/239 105/229/238 113/230/240
f 105/231/241 85/233/242 113/232/243
f 113/232/243 85/233/242 112/234/244
f 94/235/245 93/237/246 115/236/247
f 115/236/247 93/237/246 114/238/248
f 93/239/249 84/221/250 114/240/251
f 114/240/251 84/221/250 108/222/252
f 95/241/253 94/235/254 116/242/255
f 116/242/255 94/235/254 115/236/256
f 85/233/257 95/243/258 112/234/259
f 112/234/259 95/243/258 116/244/260
