# This file uses centimeters as units for non-parametric coordinates.

mtllib floorcircle.mtl
g default
v 1.225682 -2.220471 1.404154
v 1.400897 -2.220471 1.217568
v 1.551345 -2.220471 1.010495
v 1.674654 -2.220471 0.786198
v 1.768878 -2.220471 0.548214
v 1.832530 -2.220471 0.300300
v 1.864611 -2.220471 0.046360
v 1.864611 -2.220471 -0.209598
v 1.832530 -2.220471 -0.463536
v 1.768878 -2.220471 -0.711450
v 1.674651 -2.220471 -0.949434
v 1.551345 -2.220471 -1.173732
v 1.400897 -2.220471 -1.380807
v 1.225681 -2.220471 -1.567391
v 1.028461 -2.220471 -1.730546
v 0.812352 -2.220471 -1.867695
v 0.580753 -2.220471 -1.976675
v 0.337325 -2.220471 -2.055769
v 0.085899 -2.220471 -2.103732
v -0.169553 -2.220471 -2.119806
v -0.425006 -2.220471 -2.103734
v -0.676429 -2.220471 -2.055773
v -0.919855 -2.220471 -1.976677
v -1.151459 -2.220471 -1.867694
v -1.367570 -2.220471 -1.730546
v -1.564787 -2.220471 -1.567391
v -1.740005 -2.220471 -1.380807
v -1.890451 -2.220471 -1.173733
v -2.013762 -2.220471 -0.949435
v -2.107980 -2.220471 -0.711453
v -2.171638 -2.220471 -0.463536
v -2.203720 -2.220471 -0.209597
v -2.203719 -2.220471 0.046361
v -2.171637 -2.220471 0.300300
v -2.107985 -2.220471 0.548216
v -2.013762 -2.220471 0.786199
v -1.890452 -2.220471 1.010497
v -1.740004 -2.220471 1.217570
v -1.564789 -2.220471 1.404156
v -1.367569 -2.220471 1.567308
v -1.151460 -2.220471 1.704458
v -0.919860 -2.220471 1.813439
v -0.676431 -2.220471 1.892534
v -0.425006 -2.220471 1.940496
v -0.169554 -2.220471 1.956567
v 0.085899 -2.220471 1.940495
v 0.337325 -2.220471 1.892534
v 0.580753 -2.220471 1.813439
v 0.812353 -2.220471 1.704456
v 1.028461 -2.220471 1.567308
v -0.652196 -2.243163 -1.961390
v -0.169554 -2.243163 -0.081619
v -0.412792 -2.243163 -2.007059
v -0.883988 -2.243163 -1.886076
v -1.104514 -2.243163 -1.782305
v -1.310294 -2.243163 -1.651713
v -1.498083 -2.243163 -1.496359
v -1.664922 -2.243163 -1.318695
v -1.808177 -2.243163 -1.121521
v -1.925591 -2.243163 -0.907946
v -2.015310 -2.243163 -0.681342
v -2.075921 -2.243163 -0.445278
v -2.106467 -2.243163 -0.203480
v -2.106467 -2.243163 0.040242
v -2.075920 -2.243163 0.282041
v -2.015309 -2.243163 0.518104
v -1.925590 -2.243163 0.744709
v -1.808178 -2.243163 0.958284
v -1.664922 -2.243163 1.155458
v -1.498084 -2.243163 1.333122
v -1.310294 -2.243163 1.488476
v -1.104514 -2.243163 1.619068
v -0.883988 -2.243163 1.722838
v -0.652196 -2.243163 1.798152
v -0.412793 -2.243163 1.843821
v -0.169554 -2.243163 1.859124
v 0.073686 -2.243163 1.843820
v 0.313090 -2.243163 1.798152
v 0.544882 -2.243163 1.722838
v 0.765407 -2.243163 1.619067
v 0.971187 -2.243163 1.488474
v 1.158977 -2.243163 1.333122
v 1.325814 -2.243163 1.155457
v 1.469070 -2.243163 0.958284
v 1.586483 -2.243163 0.744708
v 1.676202 -2.243163 0.518103
v 1.736813 -2.243163 0.282040
v 1.767359 -2.243163 0.040241
v 1.767359 -2.243163 -0.203480
v 1.736813 -2.243163 -0.445278
v 1.676202 -2.243163 -0.681341
v 1.586482 -2.243163 -0.907946
v 1.469069 -2.243163 -1.121520
v 1.325814 -2.243163 -1.318695
v 1.158976 -2.243163 -1.496360
v 0.971186 -2.243163 -1.651711
v 0.765406 -2.243163 -1.782304
v 0.544882 -2.243163 -1.886074
v 0.313090 -2.243163 -1.961388
v 0.073687 -2.243163 -2.007057
v -0.169552 -2.243163 -2.022360
v -0.652196 -2.226080 -1.961390
v -0.412792 -2.226080 -2.007059
v -0.883988 -2.226080 -1.886076
v -1.104514 -2.226080 -1.782305
v -1.310294 -2.226080 -1.651713
v -1.498083 -2.226080 -1.496359
v -1.664922 -2.226080 -1.318695
v -1.808177 -2.226080 -1.121521
v -1.925591 -2.226080 -0.907946
v -2.015310 -2.226080 -0.681342
v -2.075921 -2.226080 -0.445278
v -2.106467 -2.226080 -0.203480
v -2.106467 -2.226080 0.040242
v -2.075920 -2.226080 0.282041
v -2.015309 -2.226080 0.518104
v -1.925590 -2.226080 0.744709
v -1.808178 -2.226080 0.958284
v -1.664922 -2.226080 1.155458
v -1.498084 -2.226080 1.333122
v -1.310294 -2.226080 1.488476
v -1.104514 -2.226080 1.619068
v -0.883988 -2.226080 1.722838
v -0.652196 -2.226080 1.798152
v -0.412793 -2.226080 1.843821
v -0.169554 -2.226080 1.859124
v 0.073686 -2.226080 1.843820
v 0.313090 -2.226080 1.798152
v 0.544882 -2.226080 1.722838
v 0.765407 -2.226080 1.619067
v 0.971187 -2.226080 1.488474
v 1.158977 -2.226080 1.333122
v 1.325814 -2.226080 1.155457
v 1.469070 -2.226080 0.958284
v 1.586483 -2.226080 0.744708
v 1.676202 -2.226080 0.518103
v 1.736813 -2.226080 0.282040
v 1.767359 -2.226080 0.040241
v 1.767359 -2.226080 -0.203480
v 1.736813 -2.226080 -0.445278
v 1.676202 -2.226080 -0.681341
v 1.586482 -2.226080 -0.907946
v 1.469069 -2.226080 -1.121520
v 1.325814 -2.226080 -1.318695
v 1.158976 -2.226080 -1.496360
v 0.971186 -2.226080 -1.651711
v 0.765406 -2.226080 -1.782304
v 0.544882 -2.226080 -1.886074
v 0.313090 -2.226080 -1.961388
v 0.073687 -2.226080 -2.007057
v -0.169552 -2.226080 -2.022360
vt 0.866294 0.374776
vt 0.440633 0.931495
vt 0.501657 0.691135
vt 0.470935 0.937440
vt 0.411174 0.922153
vt 0.383397 0.908563
vt 0.357305 0.892001
vt 0.333526 0.872042
vt 0.312273 0.849535
vt 0.294177 0.824055
vt 0.279236 0.796876
vt 0.267873 0.767999
vt 0.260298 0.737848
vt 0.256300 0.706847
vt 0.256300 0.675634
vt 0.260298 0.644846
vt 0.267873 0.614695
vt 0.279236 0.585605
vt 0.294177 0.558214
vt 0.312273 0.533159
vt 0.333526 0.510439
vt 0.357305 0.490480
vt 0.383397 0.473706
vt 0.411174 0.460541
vt 0.440633 0.450880
vt 0.470935 0.445041
vt 0.501657 0.443130
vt 0.532380 0.445041
vt 0.563102 0.450880
vt 0.592140 0.460541
vt 0.620338 0.473706
vt 0.646431 0.490480
vt 0.669998 0.510439
vt 0.691462 0.533159
vt 0.709559 0.558214
vt 0.724289 0.585605
vt 0.735651 0.614695
vt 0.743227 0.644846
vt 0.747435 0.675634
vt 0.747435 0.706847
vt 0.743227 0.737848
vt 0.735651 0.767999
vt 0.724289 0.796876
vt 0.709558 0.824055
vt 0.691462 0.849535
vt 0.669999 0.872042
vt 0.646431 0.892001
vt 0.620338 0.908563
vt 0.592140 0.922153
vt 0.563102 0.931495
vt 0.532380 0.937440
vt 0.501657 0.939564
vt 0.188009 0.496397
vt 0.188430 0.494274
vt 0.218311 0.502343
vt 0.218731 0.500219
vt 0.158970 0.484931
vt 0.158128 0.486630
vt 0.131194 0.471342
vt 0.129931 0.473465
vt 0.105101 0.454780
vt 0.103838 0.456479
vt 0.081323 0.434821
vt 0.079850 0.436519
vt 0.060070 0.412313
vt 0.058386 0.413588
vt 0.041973 0.386834
vt 0.040079 0.388108
vt 0.027033 0.359655
vt 0.025139 0.360504
vt 0.015670 0.330778
vt 0.013566 0.331202
vt 0.008094 0.300626
vt 0.005780 0.301051
vt 0.004096 0.269626
vt 0.001992 0.269626
vt 0.004096 0.238413
vt 0.001992 0.238413
vt 0.008094 0.207625
vt 0.005780 0.207200
vt 0.015670 0.177474
vt 0.013565 0.176624
vt 0.027033 0.148384
vt 0.025139 0.147535
vt 0.041973 0.120993
vt 0.040079 0.119932
vt 0.060070 0.095938
vt 0.058386 0.094452
vt 0.081323 0.073218
vt 0.079850 0.071520
vt 0.105101 0.053259
vt 0.103838 0.051560
vt 0.131194 0.036485
vt 0.129931 0.034574
vt 0.158970 0.023320
vt 0.158128 0.021303
vt 0.188430 0.013659
vt 0.188009 0.011536
vt 0.218731 0.007820
vt 0.218311 0.005696
vt 0.249454 0.005909
vt 0.249454 0.003679
vt 0.280176 0.007820
vt 0.280597 0.005696
vt 0.249454 0.003679
vt 0.310898 0.013659
vt 0.311319 0.011536
vt 0.339937 0.023320
vt 0.340779 0.021303
vt 0.368134 0.036485
vt 0.368976 0.034574
vt 0.394227 0.053259
vt 0.395490 0.051560
vt 0.417795 0.073218
vt 0.419478 0.071519
vt 0.439258 0.095938
vt 0.440942 0.094452
vt 0.457355 0.120993
vt 0.459039 0.119932
vt 0.472085 0.148384
vt 0.474189 0.147535
vt 0.483448 0.177474
vt 0.485552 0.176624
vt 0.491023 0.207625
vt 0.493548 0.207200
vt 0.495232 0.238413
vt 0.497336 0.238413
vt 0.493548 0.207200
vt 0.495232 0.269626
vt 0.497336 0.269626
vt 0.491023 0.300626
vt 0.493549 0.301051
vt 0.483448 0.330778
vt 0.485552 0.331202
vt 0.493549 0.301051
vt 0.472085 0.359655
vt 0.474189 0.360505
vt 0.457355 0.386834
vt 0.459039 0.388107
vt 0.439259 0.412314
vt 0.440942 0.413588
vt 0.417795 0.434821
vt 0.419478 0.436519
vt 0.394227 0.454780
vt 0.395490 0.456479
vt 0.368134 0.471342
vt 0.368976 0.473465
vt 0.339937 0.484931
vt 0.340779 0.486630
vt 0.310898 0.494274
vt 0.311319 0.496397
vt 0.280176 0.500219
vt 0.280597 0.502343
vt 0.249454 0.502343
vt 0.249454 0.504466
vt 0.280597 0.502343
vt 0.781687 0.500539
vt 0.750544 0.502662
vt 0.774232 0.418516
vt 0.753610 0.419790
vt 0.794644 0.414269
vt 0.811989 0.494593
vt 0.719401 0.500539
vt 0.732988 0.418516
vt 0.688679 0.494593
vt 0.712788 0.414269
vt 0.659219 0.484826
vt 0.693007 0.407899
vt 0.631022 0.471661
vt 0.674490 0.398981
vt 0.604508 0.454675
vt 0.657025 0.387940
vt 0.580519 0.434715
vt 0.641243 0.374775
vt 0.559056 0.411784
vt 0.626933 0.359487
vt 0.540959 0.386303
vt 0.614729 0.342501
vt 0.525809 0.358700
vt 0.605049 0.324240
vt 0.514445 0.329398
vt 0.597474 0.305130
vt 0.506449 0.299247
vt 0.592003 0.284746
vt 0.502662 0.267822
vt 0.589477 0.263938
vt 0.502662 0.236609
vt 0.589477 0.243129
vt 0.506449 0.205396
vt 0.592003 0.222533
vt 0.514445 0.174820
vt 0.597474 0.202361
vt 0.525809 0.145731
vt 0.605049 0.183039
vt 0.540959 0.118127
vt 0.614729 0.164778
vt 0.559056 0.092647
vt 0.626933 0.147792
vt 0.580519 0.069715
vt 0.641243 0.132716
vt 0.604508 0.049756
vt 0.657024 0.119339
vt 0.631022 0.032770
vt 0.674490 0.108298
vt 0.659219 0.019499
vt 0.693007 0.099380
vt 0.688679 0.009732
vt 0.712788 0.092798
vt 0.719401 0.003892
vt 0.732989 0.088976
vt 0.753610 0.087702
vt 0.750544 0.001875
vt 0.732989 0.088976
vt 0.781687 0.003892
vt 0.774232 0.088976
vt 0.811989 0.009732
vt 0.794643 0.092798
vt 0.841871 0.019499
vt 0.814215 0.099380
vt 0.814214 0.407899
vt 0.841869 0.484826
vt 0.832942 0.398981
vt 0.870066 0.471662
vt 0.850407 0.387940
vt 0.896159 0.454676
vt 0.866294 0.374776
vt 0.920148 0.434717
vt 0.880393 0.359488
vt 0.941612 0.411785
vt 0.892598 0.342502
vt 0.959919 0.386305
vt 0.902488 0.324241
vt 0.974860 0.358702
vt 0.910169 0.305131
vt 0.986434 0.329400
vt 0.915220 0.284747
vt 0.994219 0.299249
vt 0.917850 0.263939
vt 0.998008 0.267824
vt 0.917850 0.243130
vt 0.998008 0.236611
vt 0.915220 0.222534
vt 0.994221 0.205398
vt 0.910170 0.202362
vt 0.986435 0.174822
vt 0.902490 0.183040
vt 0.974862 0.145733
vt 0.892600 0.164779
vt 0.959922 0.118129
vt 0.880395 0.147793
vt 0.941615 0.092649
vt 0.866297 0.132717
vt 0.920152 0.069717
vt 0.850410 0.119340
vt 0.896163 0.049757
vt 0.832944 0.108298
vt 0.870070 0.032770
vn 0.000000 1.000000 -0.000000
vn 0.000000 1.000000 0.000000
vn 0.000000 1.000000 -0.000000
vn 0.000000 1.000000 0.000000
vn 0.000000 1.000000 0.000000
vn 0.000000 1.000000 -0.000000
vn 0.000000 1.000000 -0.000000
vn 0.000000 1.000000 0.000000
vn 0.000000 1.000000 0.000000
vn 0.000000 1.000000 -0.000000
vn 0.000000 1.000000 0.000000
vn 0.000000 1.000000 0.000001
vn 0.000000 1.000000 0.000000
vn 0.000000 1.000000 -0.000001
vn 0.000000 1.000000 -0.000000
vn 0.000000 1.000000 0.000000
vn 0.000000 1.000000 -0.000000
vn 0.000000 1.000000 0.000000
vn 0.000000 1.000000 -0.000000
vn 0.000000 1.000000 0.000000
vn 0.000000 1.000000 0.000000
vn 0.000000 1.000000 -0.000000
vn 0.000000 1.000000 -0.000000
vn 0.000000 1.000000 0.000000
vn 0.000000 1.000000 0.000000
vn 0.000000 1.000000 0.000000
vn 0.000000 1.000000 0.000000
vn 0.000000 1.000000 0.000000
vn 0.000000 1.000000 0.000000
vn 0.000000 1.000000 -0.000000
vn 0.000000 1.000000 0.000000
vn 0.000000 1.000000 0.000000
vn 0.000000 1.000000 -0.000000
vn 0.000000 1.000000 0.000000
vn 0.000000 1.000000 0.000000
vn 0.000000 1.000000 0.000000
vn 0.000000 1.000000 -0.000001
vn 0.000000 1.000000 -0.000001
vn 0.000000 1.000000 0.000001
vn 0.000000 1.000000 0.000001
vn 0.000000 1.000000 -0.000000
vn 0.000000 1.000000 -0.000000
vn 0.000000 1.000000 -0.000000
vn 0.000000 1.000000 0.000000
vn 0.000000 1.000000 -0.000000
vn 0.000000 1.000000 -0.000000
vn 0.000000 1.000000 0.000000
vn 0.000000 1.000000 0.000000
vn 0.000000 1.000000 0.000000
vn 0.000000 1.000000 0.000000
vn 0.000000 1.000000 0.000000
vn 0.125328 0.000000 0.992115
vn 0.248689 0.000000 0.968583
vn 0.248689 0.000000 0.968583
vn 0.125328 0.000000 0.992115
vn 0.368123 0.000000 0.929777
vn 0.368123 0.000000 0.929777
vn 0.481753 0.000000 0.876307
vn 0.481753 0.000000 0.876307
vn 0.587787 0.000000 0.809016
vn 0.587787 0.000000 0.809016
vn 0.684548 0.000000 0.728967
vn 0.684548 0.000000 0.728967
vn 0.770513 0.000000 0.637425
vn 0.770513 0.000000 0.637425
vn 0.844329 0.000000 0.535825
vn 0.844329 0.000000 0.535825
vn 0.904828 0.000000 0.425778
vn 0.904828 0.000000 0.425778
vn 0.951056 0.000000 0.309018
vn 0.951056 0.000000 0.309018
vn 0.982287 0.000000 0.187382
vn 0.982287 0.000000 0.187382
vn 0.998027 0.000000 0.062790
vn 0.998027 0.000000 0.062790
vn 0.998027 0.000000 -0.062792
vn 0.998027 0.000000 -0.062792
vn 0.982287 0.000000 -0.187384
vn 0.982287 0.000000 -0.187384
vn 0.951056 0.000000 -0.309018
vn 0.951056 0.000000 -0.309018
vn 0.904828 0.000000 -0.425777
vn 0.904828 0.000000 -0.425777
vn 0.844328 0.000000 -0.535828
vn 0.844328 0.000000 -0.535828
vn 0.770511 0.000000 -0.637427
vn 0.770511 0.000000 -0.637427
vn 0.684547 0.000000 -0.728969
vn 0.684547 0.000000 -0.728969
vn 0.587785 0.000000 -0.809017
vn 0.587785 0.000000 -0.809017
vn 0.481751 0.000000 -0.876308
vn 0.481751 0.000000 -0.876308
vn 0.368121 0.000000 -0.929778
vn 0.368121 0.000000 -0.929778
vn 0.248692 0.000000 -0.968583
vn 0.248692 0.000000 -0.968583
vn 0.125334 0.000000 -0.992115
vn 0.125334 0.000000 -0.992115
vn -0.000002 0.000000 -1.000000
vn -0.000002 0.000000 -1.000000
vn -0.125332 0.000000 -0.992115
vn -0.125332 0.000000 -0.992115
vn -0.248686 0.000000 -0.968584
vn -0.248686 0.000000 -0.968584
vn -0.368123 0.000000 -0.929777
vn -0.368123 0.000000 -0.929777
vn -0.481756 0.000000 -0.876305
vn -0.481756 0.000000 -0.876305
vn -0.587786 0.000000 -0.809017
vn -0.587786 0.000000 -0.809017
vn -0.684547 0.000000 -0.728969
vn -0.684547 0.000000 -0.728969
vn -0.770513 0.000000 -0.637425
vn -0.770513 0.000000 -0.637425
vn -0.844326 0.000000 -0.535830
vn -0.844326 0.000000 -0.535830
vn -0.904827 0.000000 -0.425779
vn -0.904827 0.000000 -0.425779
vn -0.951056 0.000000 -0.309018
vn -0.951056 0.000000 -0.309018
vn -0.982287 0.000000 -0.187382
vn -0.982287 0.000000 -0.187382
vn -0.998027 0.000000 -0.062790
vn -0.998027 0.000000 -0.062790
vn -0.998027 0.000000 0.062790
vn -0.998027 0.000000 0.062790
vn -0.982287 0.000000 0.187383
vn -0.982287 0.000000 0.187383
vn -0.951055 0.000000 0.309021
vn -0.951055 0.000000 0.309021
vn -0.904825 0.000000 0.425784
vn -0.904825 0.000000 0.425784
vn -0.844328 0.000000 0.535828
vn -0.844328 0.000000 0.535828
vn -0.770514 0.000000 0.637423
vn -0.770514 0.000000 0.637423
vn -0.684546 0.000000 0.728970
vn -0.684546 0.000000 0.728970
vn -0.587786 0.000000 0.809016
vn -0.587786 0.000000 0.809016
vn -0.481755 0.000000 0.876306
vn -0.481755 0.000000 0.876306
vn -0.368122 0.000000 0.929777
vn -0.368122 0.000000 0.929777
vn -0.248690 0.000000 0.968583
vn -0.248690 0.000000 0.968583
vn -0.125334 0.000000 0.992115
vn -0.125334 0.000000 0.992115
vn -0.000004 0.000000 1.000000
vn -0.000004 0.000000 1.000000
vn 0.007203 0.998347 0.057015
vn 0.007203 0.998347 0.057015
vn -0.000000 0.998347 0.057467
vn -0.000000 0.998347 0.057467
vn 0.014292 0.998347 0.055662
vn 0.014292 0.998347 0.055662
vn -0.007203 0.998347 0.057015
vn -0.007203 0.998347 0.057015
vn -0.014292 0.998347 0.055663
vn -0.014292 0.998347 0.055663
vn -0.021156 0.998347 0.053434
vn -0.021156 0.998347 0.053434
vn -0.027686 0.998347 0.050361
vn -0.027686 0.998347 0.050361
vn -0.033779 0.998347 0.046493
vn -0.033779 0.998347 0.046493
vn -0.039340 0.998347 0.041893
vn -0.039340 0.998347 0.041893
vn -0.044281 0.998347 0.036632
vn -0.044281 0.998347 0.036632
vn -0.048523 0.998347 0.030793
vn -0.048523 0.998347 0.030793
vn -0.052000 0.998347 0.024469
vn -0.052000 0.998347 0.024469
vn -0.054657 0.998347 0.017759
vn -0.054657 0.998347 0.017759
vn -0.056451 0.998347 0.010769
vn -0.056451 0.998347 0.010769
vn -0.057356 0.998347 0.003609
vn -0.057356 0.998347 0.003609
vn -0.057356 0.998347 -0.003608
vn -0.057356 0.998347 -0.003608
vn -0.056451 0.998347 -0.010768
vn -0.056451 0.998347 -0.010768
vn -0.054656 0.998347 -0.017759
vn -0.054656 0.998347 -0.017759
vn -0.051999 0.998347 -0.024469
vn -0.051999 0.998347 -0.024469
vn -0.048523 0.998347 -0.030794
vn -0.048523 0.998347 -0.030794
vn -0.044281 0.998347 -0.036633
vn -0.044281 0.998347 -0.036633
vn -0.039341 0.998347 -0.041894
vn -0.039341 0.998347 -0.041894
vn -0.033780 0.998347 -0.046494
vn -0.033780 0.998347 -0.046494
vn -0.027686 0.998347 -0.050361
vn -0.027686 0.998347 -0.050361
vn -0.021156 0.998347 -0.053433
vn -0.021156 0.998347 -0.053433
vn -0.014292 0.998347 -0.055663
vn -0.014292 0.998347 -0.055663
vn -0.007203 0.998347 -0.057015
vn -0.007203 0.998347 -0.057015
vn -0.000000 0.998347 -0.057468
vn -0.000000 0.998347 -0.057468
vn 0.007203 0.998347 -0.057016
vn 0.007203 0.998347 -0.057016
vn 0.014292 0.998347 -0.055664
vn 0.014292 0.998347 -0.055664
vn 0.021156 0.998347 -0.053433
vn 0.021156 0.998347 -0.053433
vn 0.021156 0.998347 0.053433
vn 0.021156 0.998347 0.053433
vn 0.027686 0.998347 0.050361
vn 0.027686 0.998347 0.050361
vn 0.033780 0.998347 0.046493
vn 0.033780 0.998347 0.046493
vn 0.039341 0.998347 0.041893
vn 0.039341 0.998347 0.041893
vn 0.044281 0.998347 0.036632
vn 0.044281 0.998347 0.036632
vn 0.048523 0.998347 0.030794
vn 0.048523 0.998347 0.030794
vn 0.052000 0.998347 0.024470
vn 0.052000 0.998347 0.024470
vn 0.054658 0.998347 0.017760
vn 0.054658 0.998347 0.017760
vn 0.056452 0.998347 0.010769
vn 0.056452 0.998347 0.010769
vn 0.057355 0.998347 0.003608
vn 0.057355 0.998347 0.003608
vn 0.057356 0.998347 -0.003609
vn 0.057356 0.998347 -0.003609
vn 0.056451 0.998347 -0.010769
vn 0.056451 0.998347 -0.010769
vn 0.054656 0.998347 -0.017758
vn 0.054656 0.998347 -0.017758
vn 0.051999 0.998347 -0.024468
vn 0.051999 0.998347 -0.024469
vn 0.048523 0.998347 -0.030793
vn 0.048523 0.998347 -0.030793
vn 0.044281 0.998347 -0.036632
vn 0.044281 0.998347 -0.036632
vn 0.039340 0.998347 -0.041893
vn 0.039340 0.998347 -0.041893
vn 0.033780 0.998347 -0.046492
vn 0.033780 0.998347 -0.046492
vn 0.027686 0.998347 -0.050360
vn 0.027686 0.998347 -0.050360
s 1
g floorcircle_insideWoodFloor5
usemtl lambert3SG
f 51/2/1 52/3/2 53/4/3
f 54/5/4 52/3/2 51/2/1
f 55/6/5 52/3/2 54/5/4
f 56/7/6 52/3/2 55/6/5
f 57/8/7 52/3/2 56/7/6
f 58/9/8 52/3/2 57/8/7
f 59/10/9 52/3/2 58/9/8
f 60/11/10 52/3/2 59/10/9
f 61/12/11 52/3/2 60/11/10
f 62/13/12 52/3/2 61/12/11
f 63/14/13 52/3/2 62/13/12
f 64/15/14 52/3/2 63/14/13
f 65/16/15 52/3/2 64/15/14
f 66/17/16 52/3/2 65/16/15
f 67/18/17 52/3/2 66/17/16
f 68/19/18 52/3/2 67/18/17
f 69/20/19 52/3/2 68/19/18
f 70/21/20 52/3/2 69/20/19
f 71/22/21 52/3/2 70/21/20
f 72/23/22 52/3/2 71/22/21
f 73/24/23 52/3/2 72/23/22
f 74/25/24 52/3/2 73/24/23
f 75/26/25 52/3/2 74/25/24
f 76/27/26 52/3/2 75/26/25
f 77/28/27 52/3/2 76/27/26
f 78/29/28 52/3/2 77/28/27
f 79/30/29 52/3/2 78/29/28
f 80/31/30 52/3/2 79/30/29
f 81/32/31 52/3/2 80/31/30
f 82/33/32 52/3/2 81/32/31
f 83/34/33 52/3/2 82/33/32
f 84/35/34 52/3/2 83/34/33
f 85/36/35 52/3/2 84/35/34
f 86/37/36 52/3/2 85/36/35
f 87/38/37 52/3/2 86/37/36
f 88/39/38 52/3/2 87/38/37
f 89/40/39 52/3/2 88/39/38
f 90/41/40 52/3/2 89/40/39
f 91/42/41 52/3/2 90/41/40
f 92/43/42 52/3/2 91/42/41
f 93/44/43 52/3/2 92/43/42
f 94/45/44 52/3/2 93/44/43
f 95/46/45 52/3/2 94/45/44
f 96/47/46 52/3/2 95/46/45
f 97/48/47 52/3/2 96/47/46
f 98/49/48 52/3/2 97/48/47
f 99/50/49 52/3/2 98/49/48
f 100/51/50 52/3/2 99/50/49
f 101/52/51 52/3/2 100/51/50
f 53/4/3 52/3/2 101/52/51
s 2
f 103/55/52 102/53/53 51/54/54 53/56/55
f 54/57/56 51/54/54 102/53/53 104/58/57
f 55/59/58 54/57/56 104/58/57 105/60/59
f 56/61/60 55/59/58 105/60/59 106/62/61
f 57/63/62 56/61/60 106/62/61 107/64/63
f 58/65/64 57/63/62 107/64/63 108/66/65
f 59/67/66 58/65/64 108/66/65 109/68/67
f 60/69/68 59/67/66 109/68/67 110/70/69
f 61/71/70 60/69/68 110/70/69 111/72/71
f 62/73/72 61/71/70 111/72/71 112/74/73
f 63/75/74 62/73/72 112/74/73 113/76/75
f 64/77/76 63/75/74 113/76/75 114/78/77
f 65/79/78 64/77/76 114/78/77 115/80/79
f 66/81/80 65/79/78 115/80/79 116/82/81
f 67/83/82 66/81/80 116/82/81 117/84/83
f 68/85/84 67/83/82 117/84/83 118/86/85
f 69/87/86 68/85/84 118/86/85 119/88/87
f 70/89/88 69/87/86 119/88/87 120/90/89
f 71/91/90 70/89/88 120/90/89 121/92/91
f 72/93/92 71/91/90 121/92/91 122/94/93
f 73/95/94 72/93/92 122/94/93 123/96/95
f 74/97/96 73/95/94 123/96/95 124/98/97
f 75/99/98 74/97/96 124/98/97 125/100/99
f 76/101/100 75/99/98 125/100/99 126/102/101
f 77/103/102 76/101/100 126/105/101 127/104/103
f 78/106/104 77/103/102 127/104/103 128/107/105
f 79/108/106 78/106/104 128/107/105 129/109/107
f 80/110/108 79/108/106 129/109/107 130/111/109
f 81/112/110 80/110/108 130/111/109 131/113/111
f 82/114/112 81/112/110 131/113/111 132/115/113
f 83/116/114 82/114/112 132/115/113 133/117/115
f 84/118/116 83/116/114 133/117/115 134/119/117
f 85/120/118 84/118/116 134/119/117 135/121/119
f 86/122/120 85/120/118 135/121/119 136/123/121
f 87/124/122 86/122/120 136/123/121 137/125/123
f 88/126/124 87/124/122 137/128/123 138/127/125
f 89/129/126 88/126/124 138/127/125 139/130/127
f 90/131/128 89/129/126 139/130/127 140/132/129
f 91/133/130 90/131/128 140/135/129 141/134/131
f 92/136/132 91/133/130 141/134/131 142/137/133
f 93/138/134 92/136/132 142/137/133 143/139/135
f 94/140/136 93/138/134 143/139/135 144/141/137
f 95/142/138 94/140/136 144/141/137 145/143/139
f 96/144/140 95/142/138 145/143/139 146/145/141
f 97/146/142 96/144/140 146/145/141 147/147/143
f 98/148/144 97/146/142 147/147/143 148/149/145
f 99/150/146 98/148/144 148/149/145 149/151/147
f 100/152/148 99/150/146 149/151/147 150/153/149
f 101/154/150 100/152/148 150/156/149 151/155/151
f 53/56/55 101/154/150 151/155/151 103/55/52
s 3
f 21/159/152 103/157/153 151/158/154 20/160/155
f 103/157/153 21/159/152 22/161/156 102/162/157
f 20/160/155 151/158/154 150/163/158 19/164/159
f 19/164/159 150/163/158 149/165/160 18/166/161
f 18/166/161 149/165/160 148/167/162 17/168/163
f 17/168/163 148/167/162 147/169/164 16/170/165
f 16/170/165 147/169/164 146/171/166 15/172/167
f 15/172/167 146/171/166 145/173/168 14/174/169
f 14/174/169 145/173/168 144/175/170 13/176/171
f 13/176/171 144/175/170 143/177/172 12/178/173
f 12/178/173 143/177/172 142/179/174 11/180/175
f 11/180/175 142/179/174 141/181/176 10/182/177
f 10/182/177 141/181/176 140/183/178 9/184/179
f 9/184/179 140/183/178 139/185/180 8/186/181
f 8/186/181 139/185/180 138/187/182 7/188/183
f 7/188/183 138/187/182 137/189/184 6/190/185
f 6/190/185 137/189/184 136/191/186 5/192/187
f 5/192/187 136/191/186 135/193/188 4/194/189
f 4/194/189 135/193/188 134/195/190 3/196/191
f 3/196/191 134/195/190 133/197/192 2/198/193
f 2/198/193 133/197/192 132/199/194 1/200/195
f 1/200/195 132/199/194 131/201/196 50/202/197
f 50/202/197 131/201/196 130/203/198 49/204/199
f 49/204/199 130/203/198 129/205/200 48/206/201
f 48/206/201 129/205/200 128/207/202 47/208/203
f 47/208/203 128/207/202 127/209/204 46/210/205
f 126/212/206 45/211/207 46/213/205 127/209/204
f 45/211/207 126/212/206 125/214/208 44/215/209
f 44/215/209 125/214/208 124/216/210 43/217/211
f 43/217/211 124/216/210 123/218/212 42/219/213
f 102/162/157 22/161/156 23/220/214 104/221/215
f 104/221/215 23/220/214 24/222/216 105/223/217
f 105/223/217 24/222/216 25/224/218 106/225/219
f 106/225/219 25/224/218 26/226/220 107/227/221
f 108/229/222 27/228/223 28/230/224 109/231/225
f 109/231/225 28/230/224 29/232/226 110/233/227
f 110/233/227 29/232/226 30/234/228 111/235/229
f 111/235/229 30/234/228 31/236/230 112/237/231
f 112/237/231 31/236/230 32/238/232 113/239/233
f 113/239/233 32/238/232 33/240/234 114/241/235
f 114/241/235 33/240/234 34/242/236 115/243/237
f 115/243/237 34/242/236 35/244/238 116/245/239
f 116/245/239 35/244/238 36/246/240 117/247/241
f 117/247/241 36/246/240 37/248/242 118/249/243
f 118/249/243 37/248/242 38/250/244 119/251/245
f 119/251/245 38/250/244 39/252/246 120/253/247
f 120/253/247 39/252/246 40/254/248 121/255/249
f 121/255/249 40/254/248 41/256/250 122/257/251
f 122/257/251 41/256/250 42/219/213 123/218/212
f 107/227/221 26/1/220 27/228/223 108/229/222
