# This file uses centimeters as units for non-parametric coordinates.

mtllib foxtail6.mtl
g default
v 0.050281 -0.033326 0.161667
v 0.024031 -0.056072 0.161667
v -0.010348 -0.061015 0.161667
v -0.041942 -0.046586 0.161667
v -0.060721 -0.017366 0.161667
v -0.060721 0.017367 0.161667
v -0.041942 0.046586 0.161667
v -0.010348 0.061015 0.161667
v 0.024031 0.056072 0.161667
v 0.050281 0.033326 0.161667
v 0.060066 0.000000 0.161667
v 0.065810 -0.043337 0.081667
v 0.031676 -0.072915 0.081667
v -0.013031 -0.079343 0.081667
v -0.054116 -0.060580 0.081667
v -0.078535 -0.022583 0.081667
v -0.078535 0.022583 0.081667
v -0.054116 0.060580 0.081667
v -0.013031 0.079343 0.081667
v 0.031676 0.072915 0.081667
v 0.065810 0.043337 0.081667
v 0.078535 0.000000 0.081667
v 0.034223 -0.078779 0.000000
v 0.071103 -0.046822 0.000000
v -0.014079 -0.085724 0.000000
v -0.058469 -0.065452 0.000000
v -0.084852 -0.024400 0.000000
v -0.084852 0.024400 0.000000
v -0.058469 0.065452 0.000000
v -0.014079 0.085724 0.000000
v 0.034223 0.078779 0.000000
v 0.071103 0.046823 0.000000
v 0.084852 0.000000 0.000000
v 0.044958 0.030447 0.171008
v 0.020976 0.051228 0.171008
v -0.010434 0.055744 0.171008
v -0.039299 0.042562 0.171008
v -0.056456 0.015867 0.171008
v -0.056456 -0.015867 0.171008
v -0.039299 -0.042562 0.171008
v -0.010434 -0.055744 0.171008
v 0.020976 -0.051228 0.171008
v 0.044958 -0.030447 0.171008
v 0.053898 0.000000 0.171008
v 0.038845 0.026492 0.179902
v 0.017978 0.044574 0.179902
v -0.009352 0.048503 0.179902
v -0.034468 0.037033 0.179902
v -0.049395 0.013806 0.179902
v -0.049395 -0.013806 0.179902
v -0.034468 -0.037033 0.179902
v -0.009352 -0.048503 0.179902
v 0.017978 -0.044574 0.179902
v 0.038845 -0.026492 0.179902
v 0.046624 0.000000 0.179902
v 0.033652 0.023155 0.186277
v 0.015414 0.038959 0.186277
v -0.008473 0.042393 0.186277
v -0.030425 0.032368 0.186277
v -0.043473 0.012066 0.186277
v -0.043473 -0.012066 0.186277
v -0.030425 -0.032368 0.186277
v -0.008473 -0.042393 0.186277
v 0.015414 -0.038959 0.186277
v 0.033652 -0.023155 0.186277
v 0.040451 0.000000 0.186277
v 0.027572 0.019248 0.191721
v 0.012411 0.032385 0.191721
v -0.007445 0.035240 0.191721
v -0.025693 0.026906 0.191721
v -0.036538 0.010030 0.191721
v -0.036538 -0.010030 0.191721
v -0.025693 -0.026906 0.191721
v -0.007445 -0.035240 0.191721
v 0.012411 -0.032385 0.191721
v 0.027572 -0.019248 0.191721
v 0.033224 0.000000 0.191721
v 0.020755 0.014867 0.196101
v 0.009045 0.025013 0.196101
v -0.006292 0.027218 0.196101
v -0.020386 0.020782 0.196101
v -0.028762 0.007747 0.196101
v -0.028762 -0.007747 0.196101
v -0.020386 -0.020782 0.196101
v -0.006292 -0.027218 0.196101
v 0.009045 -0.025013 0.196101
v 0.020755 -0.014867 0.196101
v 0.025120 0.000000 0.196101
v 0.013368 0.010119 0.199309
v 0.005397 0.017026 0.199309
v -0.005042 0.018527 0.199309
v -0.014635 0.014145 0.199309
v -0.020337 0.005273 0.199309
v -0.020337 -0.005273 0.199309
v -0.014635 -0.014145 0.199309
v -0.005042 -0.018527 0.199309
v 0.005397 -0.017026 0.199309
v 0.013368 -0.010119 0.199309
v 0.016339 0.000000 0.199309
v 0.005593 0.005123 0.201266
v 0.001558 0.008619 0.201266
v -0.003727 0.009379 0.201266
v -0.008583 0.007161 0.201266
v -0.011470 0.002669 0.201266
v -0.011470 -0.002669 0.201266
v -0.008583 -0.007161 0.201266
v -0.003727 -0.009379 0.201266
v 0.001558 -0.008619 0.201266
v 0.005593 -0.005123 0.201266
v 0.007097 0.000000 0.201266
v -0.002378 0.000000 0.201924
vt 0.640819 0.875789
vt 0.542335 0.875792
vt 0.540484 0.783954
vt 0.639289 0.783950
vt 0.461255 0.875795
vt 0.462543 0.783959
vt 0.370593 0.875798
vt 0.369220 0.783964
vt 0.289548 0.875801
vt 0.289468 0.783967
vt 0.210359 0.875805
vt 0.210170 0.783967
vt 0.131656 0.875828
vt 0.130441 0.783964
vt 0.056101 0.875955
vt 0.048077 0.783959
vt 1.039135 0.875734
vt 0.958504 0.875945
vt 0.959544 0.783954
vt 1.048093 0.783959
vt 0.859299 0.875664
vt 0.860605 0.783950
vt 0.750270 0.875788
vt 0.750000 0.783949
vt 0.540484 0.689348
vt 0.639289 0.689343
vt 0.462543 0.689353
vt 0.369220 0.689358
vt 0.289468 0.689361
vt 0.210170 0.689361
vt 0.130442 0.689358
vt 0.048077 0.689353
vt 0.959544 0.689348
vt 1.048093 0.689353
vt 0.860605 0.689343
vt 0.750000 0.689342
vt 0.859374 0.875755
vt 0.958696 0.875879
vt 0.959544 0.887452
vt 0.860617 0.887449
vt 1.045306 0.878272
vt 1.048090 0.887455
vt 0.049540 0.878620
vt 0.130784 0.876621
vt 0.130496 0.887459
vt 0.048077 0.887455
vt 0.210430 0.876214
vt 0.210238 0.887461
vt 0.289729 0.876116
vt 0.289467 0.887461
vt 0.370785 0.875987
vt 0.369226 0.887459
vt 0.461395 0.876005
vt 0.462526 0.888129
vt 0.542486 0.875731
vt 0.540480 0.887452
vt 0.641173 0.875687
vt 0.639288 0.887449
vt 0.750680 0.875656
vt 0.750000 0.887448
vt 0.959544 0.897756
vt 0.860621 0.897753
vt 1.048090 0.897759
vt 0.130508 0.897762
vt 0.048077 0.897759
vt 0.210254 0.897763
vt 0.289466 0.897763
vt 0.369227 0.897762
vt 0.462526 0.897759
vt 0.540479 0.897756
vt 0.639288 0.897753
vt 0.750000 0.897752
vt 0.959544 0.905141
vt 0.860625 0.905139
vt 1.048089 0.905143
vt 0.130525 0.905146
vt 0.048077 0.905143
vt 0.210275 0.905148
vt 0.289466 0.905148
vt 0.369228 0.905146
vt 0.462522 0.905143
vt 0.540478 0.905141
vt 0.639288 0.905139
vt 0.750000 0.905138
vt 0.959544 0.911448
vt 0.860631 0.911446
vt 1.048088 0.911450
vt 0.130550 0.911453
vt 0.048078 0.911450
vt 0.210307 0.911454
vt 0.289466 0.911454
vt 0.369231 0.911453
vt 0.462515 0.911450
vt 0.540476 0.911448
vt 0.639287 0.911446
vt 0.750000 0.911446
vt 0.959543 0.916523
vt 0.860643 0.916521
vt 1.048086 0.916524
vt 0.130594 0.916526
vt 0.048078 0.916524
vt 0.210361 0.916527
vt 0.289465 0.916527
vt 0.369235 0.916526
vt 0.462504 0.916524
vt 0.540473 0.916523
vt 0.639287 0.916521
vt 0.750000 0.916521
vt 0.959543 0.920239
vt 0.860669 0.920239
vt 1.048082 0.920241
vt 0.130682 0.920242
vt 0.048078 0.920241
vt 0.210468 0.920242
vt 0.289463 0.920242
vt 0.369244 0.920242
vt 0.462481 0.920241
vt 0.540466 0.920239
vt 0.639285 0.920239
vt 0.750000 0.920238
vt 0.959543 0.922507
vt 0.860761 0.922507
vt 1.048071 0.922508
vt 0.130922 0.922508
vt 0.048079 0.922508
vt 0.210752 0.922508
vt 0.289458 0.922508
vt 0.369268 0.922508
vt 0.462481 0.922508
vt 0.540445 0.922507
vt 0.639279 0.922507
vt 0.750000 0.922506
vt 0.911314 0.929951
vt 1.005112 0.929951
vt 0.089474 0.929159
vt 0.165310 0.929159
vt 0.253583 0.929159
vt 0.331024 0.929159
vt 0.414683 0.929159
vt 0.503358 0.929159
vt 0.593237 0.929159
vt 0.702376 0.931166
vt 0.750000 0.922506
vt 0.860761 0.922507
vt 0.814673 0.929951
vn 0.813901 -0.522267 0.254562
vn 0.403020 -0.879745 0.252236
vn 0.411165 -0.900088 0.144168
vn 0.832554 -0.534981 0.143697
vn -0.136578 -0.958799 0.249102
vn -0.140709 -0.979407 0.144786
vn -0.633972 -0.733144 0.246130
vn -0.647843 -0.747777 0.145355
vn -0.930312 -0.273550 0.244317
vn -0.949246 -0.278756 0.145692
vn -0.930312 0.273550 0.244317
vn -0.949247 0.278755 0.145692
vn -0.633973 0.733143 0.246129
vn -0.647845 0.747776 0.145355
vn -0.136578 0.958798 0.249103
vn -0.140709 0.979407 0.144787
vn 0.403020 0.879745 0.252236
vn 0.411165 0.900088 0.144167
vn 0.813901 0.522267 0.254562
vn 0.832554 0.534981 0.143696
vn 0.966832 0.000000 0.255415
vn 0.989647 0.000000 0.143521
vn 0.413909 -0.906967 0.078042
vn 0.838648 -0.539152 0.077367
vn -0.142153 -0.986693 0.078926
vn -0.652940 -0.753201 0.079737
vn -0.956424 -0.280746 0.080219
vn -0.956424 0.280746 0.080220
vn -0.652941 0.753200 0.079739
vn -0.142153 0.986693 0.078926
vn 0.413909 0.906967 0.078040
vn 0.838648 0.539152 0.077366
vn 0.997022 0.000000 0.077115
vn 0.335952 0.749787 0.570050
vn 0.682148 0.442432 0.582175
vn -0.125053 0.823152 0.553879
vn -0.555634 0.633244 0.538770
vn -0.814390 0.237053 0.529693
vn -0.814391 -0.237053 0.529691
vn -0.555635 -0.633246 0.538766
vn -0.125053 -0.823151 0.553880
vn 0.335953 -0.749786 0.570050
vn 0.682149 -0.442433 0.582173
vn 0.809847 -0.000000 0.586641
vn 0.313784 0.686438 0.656005
vn 0.635441 0.408182 0.655440
vn -0.107030 0.746476 0.656748
vn -0.493280 0.569615 0.657430
vn -0.722631 0.212270 0.657834
vn -0.722631 -0.212269 0.657834
vn -0.493279 -0.569614 0.657431
vn -0.107030 -0.746475 0.656749
vn 0.313783 -0.686438 0.656005
vn 0.635441 -0.408182 0.655441
vn 0.755428 0.000000 0.655232
vn 0.279937 0.612976 0.738848
vn 0.566898 0.364325 0.738847
vn -0.095901 0.667014 0.738847
vn -0.441294 0.509279 0.738846
vn -0.646576 0.189852 0.738848
vn -0.646576 -0.189852 0.738848
vn -0.441294 -0.509279 0.738847
vn -0.095902 -0.667017 0.738845
vn 0.279936 -0.612978 0.738846
vn 0.566896 -0.364324 0.738848
vn 0.673872 0.000000 0.738848
vn 0.230870 0.505535 0.831344
vn 0.467532 0.300465 0.831345
vn -0.079093 0.550101 0.831344
vn -0.363943 0.420012 0.831346
vn -0.533244 0.156575 0.831345
vn -0.533246 -0.156575 0.831344
vn -0.363944 -0.420014 0.831344
vn -0.079093 -0.550100 0.831345
vn 0.230867 -0.505534 0.831346
vn 0.467531 -0.300466 0.831345
vn 0.555759 0.000000 0.831344
vn 0.178870 0.391667 0.902553
vn 0.362226 0.232787 0.902553
vn -0.061276 0.426195 0.902554
vn -0.281968 0.325410 0.902553
vn -0.413136 0.121308 0.902554
vn -0.413137 -0.121309 0.902553
vn -0.281971 -0.325411 0.902552
vn -0.061278 -0.426194 0.902554
vn 0.178867 -0.391666 0.902555
vn 0.362225 -0.232788 0.902554
vn 0.430578 -0.000000 0.902553
vn 0.125749 0.275350 0.953084
vn 0.254649 0.163654 0.953085
vn -0.043077 0.299626 0.953084
vn -0.198226 0.228769 0.953085
vn -0.290438 0.085281 0.953086
vn -0.290439 -0.085282 0.953086
vn -0.198229 -0.228769 0.953084
vn -0.043078 -0.299626 0.953084
vn 0.125750 -0.275351 0.953084
vn 0.254651 -0.163654 0.953085
vn 0.302702 -0.000000 0.953085
vn 0.075271 0.164825 0.983447
vn 0.152434 0.097964 0.983447
vn -0.025789 0.179356 0.983446
vn -0.118660 0.136941 0.983447
vn -0.173856 0.051050 0.983447
vn -0.173858 -0.051051 0.983447
vn -0.118660 -0.136941 0.983447
vn -0.025783 -0.179353 0.983447
vn 0.075278 -0.164824 0.983446
vn 0.152437 -0.097964 0.983446
vn 0.181202 0.000000 0.983446
vn -0.000004 0.000000 1.000000
s 1
g tail6
usemtl foxtailMatSG
f 1/1/1 2/2/2 13/3/3 12/4/4
f 2/2/2 3/5/5 14/6/6 13/3/3
f 3/5/5 4/7/7 15/8/8 14/6/6
f 4/7/7 5/9/9 16/10/10 15/8/8
f 5/9/9 6/11/11 17/12/12 16/10/10
f 6/11/11 7/13/13 18/14/14 17/12/12
f 7/13/13 8/15/15 19/16/16 18/14/14
f 8/17/15 9/18/17 20/19/18 19/20/16
f 9/18/17 10/21/19 21/22/20 20/19/18
f 10/21/19 11/23/21 22/24/22 21/22/20
f 11/23/21 1/1/1 12/4/4 22/24/22
f 12/4/4 13/3/3 23/25/23 24/26/24
f 13/3/3 14/6/6 25/27/25 23/25/23
f 14/6/6 15/8/8 26/28/26 25/27/25
f 15/8/8 16/10/10 27/29/27 26/28/26
f 16/10/10 17/12/12 28/30/28 27/29/27
f 17/12/12 18/14/14 29/31/29 28/30/28
f 18/14/14 19/16/16 30/32/30 29/31/29
f 19/20/16 20/19/18 31/33/31 30/34/30
f 20/19/18 21/22/20 32/35/32 31/33/31
f 21/22/20 22/24/22 33/36/33 32/35/32
f 22/24/22 12/4/4 24/26/24 33/36/33
f 10/37/19 9/38/17 35/39/34 34/40/35
f 9/38/17 8/41/15 36/42/36 35/39/34
f 8/43/15 7/44/13 37/45/37 36/46/36
f 7/44/13 6/47/11 38/48/38 37/45/37
f 6/47/11 5/49/9 39/50/39 38/48/38
f 5/49/9 4/51/7 40/52/40 39/50/39
f 4/51/7 3/53/5 41/54/41 40/52/40
f 3/53/5 2/55/2 42/56/42 41/54/41
f 2/55/2 1/57/1 43/58/43 42/56/42
f 1/57/1 11/59/21 44/60/44 43/58/43
f 11/59/21 10/37/19 34/40/35 44/60/44
f 34/40/35 35/39/34 46/61/45 45/62/46
f 35/39/34 36/42/36 47/63/47 46/61/45
f 36/46/36 37/45/37 48/64/48 47/65/47
f 37/45/37 38/48/38 49/66/49 48/64/48
f 38/48/38 39/50/39 50/67/50 49/66/49
f 39/50/39 40/52/40 51/68/51 50/67/50
f 40/52/40 41/54/41 52/69/52 51/68/51
f 41/54/41 42/56/42 53/70/53 52/69/52
f 42/56/42 43/58/43 54/71/54 53/70/53
f 43/58/43 44/60/44 55/72/55 54/71/54
f 44/60/44 34/40/35 45/62/46 55/72/55
f 45/62/46 46/61/45 57/73/56 56/74/57
f 46/61/45 47/63/47 58/75/58 57/73/56
f 47/65/47 48/64/48 59/76/59 58/77/58
f 48/64/48 49/66/49 60/78/60 59/76/59
f 49/66/49 50/67/50 61/79/61 60/78/60
f 50/67/50 51/68/51 62/80/62 61/79/61
f 51/68/51 52/69/52 63/81/63 62/80/62
f 52/69/52 53/70/53 64/82/64 63/81/63
f 53/70/53 54/71/54 65/83/65 64/82/64
f 54/71/54 55/72/55 66/84/66 65/83/65
f 55/72/55 45/62/46 56/74/57 66/84/66
f 56/74/57 57/73/56 68/85/67 67/86/68
f 57/73/56 58/75/58 69/87/69 68/85/67
f 58/77/58 59/76/59 70/88/70 69/89/69
f 59/76/59 60/78/60 71/90/71 70/88/70
f 60/78/60 61/79/61 72/91/72 71/90/71
f 61/79/61 62/80/62 73/92/73 72/91/72
f 62/80/62 63/81/63 74/93/74 73/92/73
f 63/81/63 64/82/64 75/94/75 74/93/74
f 64/82/64 65/83/65 76/95/76 75/94/75
f 65/83/65 66/84/66 77/96/77 76/95/76
f 66/84/66 56/74/57 67/86/68 77/96/77
f 67/86/68 68/85/67 79/97/78 78/98/79
f 68/85/67 69/87/69 80/99/80 79/97/78
f 69/89/69 70/88/70 81/100/81 80/101/80
f 70/88/70 71/90/71 82/102/82 81/100/81
f 71/90/71 72/91/72 83/103/83 82/102/82
f 72/91/72 73/92/73 84/104/84 83/103/83
f 73/92/73 74/93/74 85/105/85 84/104/84
f 74/93/74 75/94/75 86/106/86 85/105/85
f 75/94/75 76/95/76 87/107/87 86/106/86
f 76/95/76 77/96/77 88/108/88 87/107/87
f 77/96/77 67/86/68 78/98/79 88/108/88
f 78/98/79 79/97/78 90/109/89 89/110/90
f 79/97/78 80/99/80 91/111/91 90/109/89
f 80/101/80 81/100/81 92/112/92 91/113/91
f 81/100/81 82/102/82 93/114/93 92/112/92
f 82/102/82 83/103/83 94/115/94 93/114/93
f 83/103/83 84/104/84 95/116/95 94/115/94
f 84/104/84 85/105/85 96/117/96 95/116/95
f 85/105/85 86/106/86 97/118/97 96/117/96
f 86/106/86 87/107/87 98/119/98 97/118/97
f 87/107/87 88/108/88 99/120/99 98/119/98
f 88/108/88 78/98/79 89/110/90 99/120/99
f 89/110/90 90/109/89 101/121/100 100/122/101
f 90/109/89 91/111/91 102/123/102 101/121/100
f 91/113/91 92/112/92 103/124/103 102/125/102
f 92/112/92 93/114/93 104/126/104 103/124/103
f 93/114/93 94/115/94 105/127/105 104/126/104
f 94/115/94 95/116/95 106/128/106 105/127/105
f 95/116/95 96/117/96 107/129/107 106/128/106
f 96/117/96 97/118/97 108/130/108 107/129/107
f 97/118/97 98/119/98 109/131/109 108/130/108
f 98/119/98 99/120/99 110/132/110 109/131/109
f 99/120/99 89/110/90 100/122/101 110/132/110
f 100/122/101 101/121/100 111/133/111
f 101/121/100 102/123/102 111/134/111
f 102/125/102 103/124/103 111/135/111
f 103/124/103 104/126/104 111/136/111
f 104/126/104 105/127/105 111/137/111
f 105/127/105 106/128/106 111/138/111
f 106/128/106 107/129/107 111/139/111
f 107/129/107 108/130/108 111/140/111
f 108/130/108 109/131/109 111/141/111
f 109/131/109 110/132/110 111/142/111
f 110/143/110 100/144/101 111/145/111
