# This file uses centimeters as units for non-parametric coordinates.

mtllib foxtail4.mtl
g default
v 0.071044 0.046535 0.163333
v 0.034391 0.078295 0.163333
v -0.013615 0.085197 0.163333
v -0.057731 0.065050 0.163333
v -0.083952 0.024250 0.163333
v -0.083952 -0.024250 0.163333
v -0.057731 -0.065050 0.163333
v -0.013615 -0.085197 0.163333
v 0.034391 -0.078295 0.163333
v 0.071044 -0.046535 0.163333
v 0.084708 0.000000 0.163333
v 0.067927 0.044980 0.185626
v 0.032498 0.075680 0.185626
v -0.013904 0.082351 0.185626
v -0.056547 0.062877 0.185626
v -0.081892 0.023440 0.185626
v -0.081892 -0.023440 0.185626
v -0.056547 -0.062877 0.185626
v -0.013904 -0.082351 0.185626
v 0.032498 -0.075680 0.185626
v 0.067927 -0.044980 0.185626
v 0.081135 0.000000 0.185626
v 0.060688 0.040328 0.206400
v 0.028924 0.067853 0.206400
v -0.012679 0.073834 0.206400
v -0.050912 0.056374 0.206400
v -0.073635 0.021015 0.206400
v -0.073635 -0.021015 0.206400
v -0.050912 -0.056374 0.206400
v -0.012679 -0.073834 0.206400
v 0.028924 -0.067853 0.206400
v 0.060688 -0.040328 0.206400
v 0.072530 0.000000 0.206400
v 0.049173 0.032928 0.224239
v 0.023237 0.055401 0.224239
v -0.010731 0.060285 0.224239
v -0.041948 0.046029 0.224239
v -0.060502 0.017159 0.224239
v -0.060502 -0.017159 0.224239
v -0.041948 -0.046029 0.224239
v -0.010731 -0.060285 0.224239
v 0.023237 -0.055401 0.224239
v 0.049173 -0.032928 0.224239
v 0.058842 0.000000 0.224239
v 0.034166 0.023283 0.237927
v 0.015827 0.039175 0.237927
v -0.008193 0.042628 0.237927
v -0.030266 0.032548 0.237927
v -0.043386 0.012133 0.237927
v -0.043386 -0.012133 0.237927
v -0.030266 -0.032548 0.237927
v -0.008193 -0.042628 0.237927
v 0.015827 -0.039175 0.237927
v 0.034166 -0.023284 0.237927
v 0.041003 0.000000 0.237927
v 0.016690 0.012052 0.246531
v 0.007197 0.020278 0.246531
v -0.005236 0.022066 0.246531
v -0.016662 0.016848 0.246531
v -0.023453 0.006281 0.246531
v -0.023453 -0.006281 0.246531
v -0.016662 -0.016848 0.246531
v -0.005236 -0.022066 0.246531
v 0.007197 -0.020278 0.246531
v 0.016690 -0.012052 0.246531
v 0.020229 0.000000 0.246531
v -0.002064 0.000000 0.249466
v 0.067458 -0.044173 0.081667
v 0.032665 -0.074321 0.081667
v -0.012905 -0.080873 0.081667
v -0.054782 -0.061748 0.081667
v -0.079672 -0.023019 0.081667
v -0.079672 0.023019 0.081667
v -0.054782 0.061748 0.081667
v -0.012905 0.080873 0.081667
v 0.032665 0.074321 0.081667
v 0.067458 0.044173 0.081667
v 0.080428 0.000000 0.081667
v 0.029134 -0.066193 0.000000
v 0.060121 -0.039342 0.000000
v -0.011452 -0.072028 0.000000
v -0.048750 -0.054995 0.000000
v -0.070917 -0.020501 0.000000
v -0.070917 0.020501 0.000000
v -0.048750 0.054995 0.000000
v -0.011452 0.072029 0.000000
v 0.029133 0.066193 0.000000
v 0.060121 0.039342 0.000000
v 0.071673 0.000000 0.000000
vt 0.860605 0.500131
vt 0.959544 0.500135
vt 0.959544 0.525960
vt 0.860610 0.525956
vt 1.048093 0.500141
vt 1.048092 0.525966
vt 0.048077 0.500141
vt 0.130442 0.500146
vt 0.130464 0.525971
vt 0.048077 0.525966
vt 0.210171 0.500149
vt 0.210199 0.525974
vt 0.289468 0.500149
vt 0.289467 0.525974
vt 0.369220 0.500146
vt 0.369222 0.525971
vt 0.462543 0.500141
vt 0.462537 0.525966
vt 0.540484 0.500135
vt 0.540482 0.525960
vt 0.639289 0.500131
vt 0.639289 0.525956
vt 0.750000 0.500129
vt 0.750000 0.525955
vt 0.959544 0.550026
vt 0.860612 0.550022
vt 1.048092 0.550031
vt 0.130472 0.550035
vt 0.048077 0.550031
vt 0.210209 0.550038
vt 0.289467 0.550038
vt 0.369223 0.550035
vt 0.462535 0.550031
vt 0.540482 0.550026
vt 0.639289 0.550022
vt 0.750000 0.550021
vt 0.959544 0.570692
vt 0.860616 0.570689
vt 1.048091 0.570696
vt 0.130490 0.570699
vt 0.048077 0.570696
vt 0.210231 0.570702
vt 0.289467 0.570702
vt 0.369225 0.570699
vt 0.462531 0.570696
vt 0.540481 0.570692
vt 0.639288 0.570689
vt 0.750000 0.570688
vt 0.959544 0.586550
vt 0.860626 0.586547
vt 1.048089 0.586552
vt 0.130529 0.586555
vt 0.048077 0.586552
vt 0.210280 0.586556
vt 0.289466 0.586556
vt 0.369229 0.586555
vt 0.462521 0.586552
vt 0.540478 0.586550
vt 0.639288 0.586547
vt 0.750000 0.586547
vt 0.959543 0.596519
vt 0.860659 0.596518
vt 1.048084 0.596520
vt 0.130648 0.596521
vt 0.048078 0.596520
vt 0.210426 0.596522
vt 0.289464 0.596522
vt 0.369241 0.596521
vt 0.462490 0.596520
vt 0.540469 0.596519
vt 0.639286 0.596518
vt 0.750000 0.596517
vt 0.905896 0.610715
vt 1.006956 0.610715
vt 0.089955 0.610715
vt 0.175093 0.610715
vt 0.251206 0.610715
vt 0.325358 0.610715
vt 0.414811 0.610715
vt 0.504657 0.610715
vt 0.587440 0.610715
vt 0.692195 0.610715
vt 0.750000 0.596517
vt 0.860659 0.596518
vt 0.801657 0.610715
vt 0.540484 0.405529
vt 0.639289 0.405525
vt 0.462543 0.405534
vt 0.369220 0.405539
vt 0.289468 0.405542
vt 0.210171 0.405542
vt 0.130442 0.405539
vt 0.048077 0.405534
vt 0.959544 0.405529
vt 1.048093 0.405534
vt 0.860605 0.405525
vt 0.750000 0.405523
vt 0.540484 0.310923
vt 0.639289 0.310920
vt 0.462543 0.310928
vt 0.369220 0.310932
vt 0.289468 0.310935
vt 0.210172 0.310935
vt 0.130443 0.310932
vt 0.048077 0.310928
vt 0.959544 0.310923
vt 1.048093 0.310928
vt 0.860605 0.310920
vt 0.750000 0.310918
vn 0.832928 0.531662 0.153512
vn 0.415953 0.898436 0.140698
vn 0.399427 0.881047 0.253405
vn 0.811455 0.523367 0.260052
vn -0.135676 0.982999 0.123716
vn -0.140880 0.959305 0.244719
vn -0.647796 0.754132 0.107916
vn -0.637936 0.732793 0.236754
vn -0.954382 0.281895 0.098442
vn -0.933544 0.273239 0.232027
vn -0.954382 -0.281895 0.098441
vn -0.933544 -0.273239 0.232027
vn -0.647796 -0.754132 0.107915
vn -0.637936 -0.732793 0.236752
vn -0.135675 -0.982999 0.123715
vn -0.140880 -0.959305 0.244718
vn 0.415954 -0.898436 0.140697
vn 0.399426 -0.881047 0.253406
vn 0.832928 -0.531662 0.153510
vn 0.811454 -0.523368 0.260053
vn 0.987398 -0.000000 0.158255
vn 0.964923 -0.000000 0.262534
vn 0.364212 0.797513 0.480960
vn 0.737562 0.474003 0.480961
vn -0.124774 0.867818 0.480961
vn -0.574144 0.662597 0.480962
vn -0.841227 0.247007 0.480962
vn -0.841227 -0.247007 0.480962
vn -0.574144 -0.662597 0.480962
vn -0.124774 -0.867818 0.480961
vn 0.364211 -0.797512 0.480962
vn 0.737561 -0.474002 0.480963
vn 0.876742 0.000000 0.480962
vn 0.303474 0.664515 0.682878
vn 0.614563 0.394956 0.682878
vn -0.103966 0.723097 0.682877
vn -0.478398 0.552101 0.682877
vn -0.700942 0.205815 0.682877
vn -0.700941 -0.205814 0.682878
vn -0.478398 -0.552100 0.682877
vn -0.103966 -0.723099 0.682876
vn 0.303474 -0.664516 0.682878
vn 0.614563 -0.394956 0.682878
vn 0.730533 0.000000 0.682877
vn 0.225063 0.492818 0.840522
vn 0.455773 0.292907 0.840521
vn -0.077102 0.536263 0.840522
vn -0.354789 0.409449 0.840522
vn -0.519832 0.152637 0.840521
vn -0.519833 -0.152636 0.840521
vn -0.354790 -0.409449 0.840521
vn -0.077102 -0.536264 0.840521
vn 0.225062 -0.492819 0.840521
vn 0.455773 -0.292908 0.840521
vn 0.541778 -0.000000 0.840521
vn 0.139478 0.305413 0.941949
vn 0.282454 0.181522 0.941950
vn -0.047783 0.332337 0.941949
vn -0.219871 0.253745 0.941950
vn -0.322152 0.094592 0.941950
vn -0.322152 -0.094593 0.941950
vn -0.219871 -0.253745 0.941950
vn -0.047782 -0.332336 0.941950
vn 0.139477 -0.305412 0.941950
vn 0.282454 -0.181522 0.941950
vn 0.335752 -0.000000 0.941951
vn -0.000001 0.000000 1.000000
vn 0.840036 -0.539984 -0.052506
vn 0.414671 -0.908429 -0.052965
vn 0.414045 -0.906824 -0.078974
vn 0.838645 -0.539022 -0.078295
vn -0.142301 -0.988373 -0.053566
vn -0.141946 -0.986648 -0.079864
vn -0.654013 -0.754545 -0.054119
vn -0.652776 -0.753242 -0.080681
vn -0.958085 -0.281262 -0.054447
vn -0.956334 -0.280779 -0.081166
vn -0.958085 0.281262 -0.054448
vn -0.956334 0.280779 -0.081166
vn -0.654013 0.754545 -0.054120
vn -0.652777 0.753242 -0.080680
vn -0.142302 0.988373 -0.053567
vn -0.141946 0.986647 -0.079863
vn 0.414671 0.908429 -0.052965
vn 0.414045 0.906824 -0.078974
vn 0.840036 0.539984 -0.052505
vn 0.838645 0.539021 -0.078295
vn 0.998630 -0.000000 -0.052334
vn 0.996950 0.000000 -0.078041
vn 0.413311 -0.904179 -0.107861
vn 0.836543 -0.537366 -0.106934
vn -0.141087 -0.983970 -0.109076
vn -0.650652 -0.751338 -0.110192
vn -0.953549 -0.280101 -0.110855
vn -0.953549 0.280100 -0.110855
vn -0.650653 0.751338 -0.110191
vn -0.141087 0.983970 -0.109074
vn 0.413311 0.904179 -0.107861
vn 0.836542 0.537366 -0.106935
vn 0.994303 0.000000 -0.106589
s 1
g tail4
usemtl foxtailMatSG
f 1/1/1 2/2/2 13/3/3 12/4/4
f 2/2/2 3/5/5 14/6/6 13/3/3
f 3/7/5 4/8/7 15/9/8 14/10/6
f 4/8/7 5/11/9 16/12/10 15/9/8
f 5/11/9 6/13/11 17/14/12 16/12/10
f 6/13/11 7/15/13 18/16/14 17/14/12
f 7/15/13 8/17/15 19/18/16 18/16/14
f 8/17/15 9/19/17 20/20/18 19/18/16
f 9/19/17 10/21/19 21/22/20 20/20/18
f 10/21/19 11/23/21 22/24/22 21/22/20
f 11/23/21 1/1/1 12/4/4 22/24/22
f 12/4/4 13/3/3 24/25/23 23/26/24
f 13/3/3 14/6/6 25/27/25 24/25/23
f 14/10/6 15/9/8 26/28/26 25/29/25
f 15/9/8 16/12/10 27/30/27 26/28/26
f 16/12/10 17/14/12 28/31/28 27/30/27
f 17/14/12 18/16/14 29/32/29 28/31/28
f 18/16/14 19/18/16 30/33/30 29/32/29
f 19/18/16 20/20/18 31/34/31 30/33/30
f 20/20/18 21/22/20 32/35/32 31/34/31
f 21/22/20 22/24/22 33/36/33 32/35/32
f 22/24/22 12/4/4 23/26/24 33/36/33
f 23/26/24 24/25/23 35/37/34 34/38/35
f 24/25/23 25/27/25 36/39/36 35/37/34
f 25/29/25 26/28/26 37/40/37 36/41/36
f 26/28/26 27/30/27 38/42/38 37/40/37
f 27/30/27 28/31/28 39/43/39 38/42/38
f 28/31/28 29/32/29 40/44/40 39/43/39
f 29/32/29 30/33/30 41/45/41 40/44/40
f 30/33/30 31/34/31 42/46/42 41/45/41
f 31/34/31 32/35/32 43/47/43 42/46/42
f 32/35/32 33/36/33 44/48/44 43/47/43
f 33/36/33 23/26/24 34/38/35 44/48/44
f 34/38/35 35/37/34 46/49/45 45/50/46
f 35/37/34 36/39/36 47/51/47 46/49/45
f 36/41/36 37/40/37 48/52/48 47/53/47
f 37/40/37 38/42/38 49/54/49 48/52/48
f 38/42/38 39/43/39 50/55/50 49/54/49
f 39/43/39 40/44/40 51/56/51 50/55/50
f 40/44/40 41/45/41 52/57/52 51/56/51
f 41/45/41 42/46/42 53/58/53 52/57/52
f 42/46/42 43/47/43 54/59/54 53/58/53
f 43/47/43 44/48/44 55/60/55 54/59/54
f 44/48/44 34/38/35 45/50/46 55/60/55
f 45/50/46 46/49/45 57/61/56 56/62/57
f 46/49/45 47/51/47 58/63/58 57/61/56
f 47/53/47 48/52/48 59/64/59 58/65/58
f 48/52/48 49/54/49 60/66/60 59/64/59
f 49/54/49 50/55/50 61/67/61 60/66/60
f 50/55/50 51/56/51 62/68/62 61/67/61
f 51/56/51 52/57/52 63/69/63 62/68/62
f 52/57/52 53/58/53 64/70/64 63/69/63
f 53/58/53 54/59/54 65/71/65 64/70/64
f 54/59/54 55/60/55 66/72/66 65/71/65
f 55/60/55 45/50/46 56/62/57 66/72/66
f 56/62/57 57/61/56 67/73/67
f 57/61/56 58/63/58 67/74/67
f 58/65/58 59/64/59 67/75/67
f 59/64/59 60/66/60 67/76/67
f 60/66/60 61/67/61 67/77/67
f 61/67/61 62/68/62 67/78/67
f 62/68/62 63/69/63 67/79/67
f 63/69/63 64/70/64 67/80/67
f 64/70/64 65/71/65 67/81/67
f 65/71/65 66/72/66 67/82/67
f 66/83/66 56/84/57 67/85/67
s 2
f 10/21/68 9/19/69 69/86/70 68/87/71
f 9/19/69 8/17/72 70/88/73 69/86/70
f 8/17/72 7/15/74 71/89/75 70/88/73
f 7/15/74 6/13/76 72/90/77 71/89/75
f 6/13/76 5/11/78 73/91/79 72/90/77
f 5/11/78 4/8/80 74/92/81 73/91/79
f 4/8/80 3/7/82 75/93/83 74/92/81
f 3/5/82 2/2/84 76/94/85 75/95/83
f 2/2/84 1/1/86 77/96/87 76/94/85
f 1/1/86 11/23/88 78/97/89 77/96/87
f 11/23/88 10/21/68 68/87/71 78/97/89
f 68/87/71 69/86/70 79/98/90 80/99/91
f 69/86/70 70/88/73 81/100/92 79/98/90
f 70/88/73 71/89/75 82/101/93 81/100/92
f 71/89/75 72/90/77 83/102/94 82/101/93
f 72/90/77 73/91/79 84/103/95 83/102/94
f 73/91/79 74/92/81 85/104/96 84/103/95
f 74/92/81 75/93/83 86/105/97 85/104/96
f 75/95/83 76/94/85 87/106/98 86/107/97
f 76/94/85 77/96/87 88/108/99 87/106/98
f 77/96/87 78/97/89 89/109/100 88/108/99
f 78/97/89 68/87/71 80/99/91 89/109/100
