# This file uses centimeters as units for non-parametric coordinates.

mtllib foxtail7.mtl
g default
v 0.027249 -0.018532 0.077059
v 0.012652 -0.031180 0.077059
v -0.006466 -0.033929 0.077059
v -0.024035 -0.025905 0.077059
v -0.034477 -0.009657 0.077059
v -0.034477 0.009657 0.077059
v -0.024035 0.025906 0.077059
v -0.006466 0.033929 0.077059
v 0.012652 0.031180 0.077059
v 0.027249 0.018532 0.077059
v 0.032690 0.000000 0.077059
v -0.002114 0.000000 0.098255
v -0.034477 -0.009657 0.077059
v -0.034477 0.009657 0.077059
v -0.024035 0.025906 0.077059
v -0.006466 0.033929 0.077059
v 0.024359 -0.056072 0.018495
v 0.050608 -0.033326 0.018495
v -0.010021 -0.061015 0.018495
v -0.041615 -0.046586 0.018495
v -0.060393 -0.017366 0.018495
v -0.060393 0.017367 0.018495
v -0.041615 0.046586 0.018495
v -0.010021 0.061015 0.018495
v 0.024359 0.056072 0.018495
v 0.050608 0.033326 0.018495
v 0.060393 0.000000 0.018495
vt 0.540478 0.944475
vt 0.639288 0.944473
vt 0.601086 0.969031
vt 0.462522 0.944477
vt 0.511774 0.969031
vt 0.369228 0.944479
vt 0.422462 0.969031
vt 0.289466 0.944481
vt 0.369228 0.944479
vt 0.331098 0.969031
vt 0.210275 0.944481
vt 0.289466 0.944481
vt 0.254893 0.969031
vt 0.130525 0.944479
vt 0.210275 0.944481
vt 0.167873 0.969031
vt 0.048077 0.944477
vt 0.130525 0.944479
vt 0.093758 0.969031
vt 0.959544 0.944475
vt 1.048089 0.944477
vt 0.999279 0.969031
vt 0.860625 0.944473
vt 0.959544 0.944475
vt 0.910547 0.969031
vt 0.750000 0.944473
vt 0.860625 0.944473
vt 0.796134 0.971084
vt 0.750000 0.944473
vt 0.694503 0.969031
vt 0.540483 0.876631
vt 0.639289 0.876628
vt 0.462540 0.876635
vt 0.369221 0.876638
vt 0.289466 0.944481
vt 0.289468 0.876640
vt 0.210275 0.944481
vt 0.210186 0.876640
vt 0.130525 0.944479
vt 0.130454 0.876638
vt 0.048077 0.944477
vt 0.048077 0.876635
vt 1.048089 0.944477
vt 0.959544 0.876631
vt 1.048092 0.876635
vt 0.860608 0.876628
vt 0.750000 0.876626
vn 0.359517 -0.788243 0.499421
vn 0.727698 -0.467961 0.501466
vn -0.003503 -0.000000 0.999994
vn -0.123976 -0.859007 0.496726
vn -0.569556 -0.656761 0.494237
vn -0.509930 -0.150178 0.847005
vn -0.509929 0.150179 0.847006
vn -0.346052 0.401122 0.848144
vn -0.073489 0.521593 0.850024
vn 0.359514 0.788244 0.499420
vn 0.727698 0.467961 0.501466
vn 0.864737 -0.000000 0.502226
vn 0.376780 -0.822993 0.425110
vn 0.761002 -0.488470 0.426934
vn -0.128066 -0.897171 0.422709
vn -0.593622 -0.686149 0.420491
vn -0.871195 -0.255571 0.419169
vn -0.871057 -0.256040 0.419170
vn -0.871195 0.255571 0.419169
vn -0.871057 0.256041 0.419170
vn -0.594613 0.685294 0.420486
vn -0.593621 0.686150 0.420490
vn -0.129760 0.896932 0.422700
vn -0.128065 0.897172 0.422708
vn 0.376779 0.822995 0.425109
vn 0.761002 0.488470 0.426934
vn 0.903962 -0.000000 0.427614
s 1
g tail7
usemtl foxtailMatSG
f 2/1/1 1/2/2 12/3/3
f 3/4/4 2/1/1 12/5/3
f 4/6/5 3/4/4 12/7/3
f 5/8/6 4/9/5 12/10/3
f 6/11/7 5/12/6 12/13/3
f 7/14/8 6/15/7 12/16/3
f 8/17/9 7/18/8 12/19/3
f 9/20/10 8/21/9 12/22/3
f 10/23/11 9/24/10 12/25/3
f 11/26/12 10/27/11 12/28/3
f 1/2/2 11/29/12 12/30/3
f 1/2/2 2/1/1 17/31/13 18/32/14
f 2/1/1 3/4/4 19/33/15 17/31/13
f 3/4/4 4/6/5 20/34/16 19/33/15
f 4/6/5 13/35/17 21/36/18 20/34/16
f 13/35/17 14/37/19 22/38/20 21/36/18
f 14/37/19 15/39/21 23/40/22 22/38/20
f 15/39/21 16/41/23 24/42/24 23/40/22
f 16/43/23 9/24/10 25/44/25 24/45/24
f 9/24/10 10/23/11 26/46/26 25/44/25
f 10/23/11 11/29/12 27/47/27 26/46/26
f 11/29/12 1/2/2 18/32/14 27/47/27
