# This file uses centimeters as units for non-parametric coordinates.

mtllib krakencap.mtl
g default
v 0.000000 1.424297 -0.103225
v -0.031898 1.424297 -0.098173
v -0.060674 1.424297 -0.083511
v -0.083511 1.424297 -0.060674
v -0.098173 1.424297 -0.031898
v -0.103225 1.424297 -0.000000
v -0.098173 1.424297 0.031898
v -0.083511 1.424297 0.060674
v -0.060674 1.424297 0.083511
v -0.031898 1.424297 0.098173
v 0.000000 1.424297 0.103225
v 0.000000 1.424297 -0.000000
v -0.033021 1.399409 0.101629
v -0.062810 1.399409 0.086451
v -0.086451 1.399409 0.062810
v -0.101629 1.399409 0.033021
v -0.106859 1.399409 -0.000000
v -0.101629 1.399409 -0.033021
v -0.086451 1.399409 -0.062810
v -0.062810 1.399409 -0.086451
v -0.033021 1.399409 -0.101629
v 0.000000 1.399409 -0.106859
v 0.000000 1.399409 0.106859
v -0.030912 1.392396 0.095137
v -0.058798 1.392396 0.080928
v -0.080928 1.392396 0.058798
v -0.095137 1.392396 0.030912
v -0.100033 1.392396 -0.000000
v -0.095137 1.392396 -0.030912
v -0.080928 1.392396 -0.058798
v -0.058798 1.392396 -0.080928
v -0.030912 1.392396 -0.095137
v 0.000000 1.392396 -0.100033
v 0.000000 1.392396 0.100033
v -0.032177 1.387617 0.099032
v -0.061205 1.387617 0.084242
v -0.084242 1.387617 0.061205
v -0.099032 1.387617 0.032177
v -0.104129 1.387617 -0.000000
v -0.099032 1.387617 -0.032177
v -0.084242 1.387617 -0.061205
v -0.061205 1.387617 -0.084242
v -0.032178 1.387617 -0.099032
v 0.000000 1.387617 -0.104129
v 0.000000 1.387617 0.104128
v -0.032669 1.114733 0.100546
v -0.062141 1.114733 0.085530
v -0.085530 1.114733 0.062141
v -0.100546 1.114733 0.032669
v -0.105720 1.114733 -0.000000
v -0.100546 1.114733 -0.032669
v -0.085530 1.114733 -0.062141
v -0.062141 1.114733 -0.085530
v -0.032669 1.114733 -0.100546
v 0.000000 1.114733 -0.105721
v 0.000000 1.114733 0.105720
v 0.000000 1.421696 0.108864
v -0.033641 1.421696 0.103536
v -0.063989 1.421696 0.088073
v -0.088073 1.421696 0.063989
v -0.103536 1.421696 0.033641
v -0.108864 1.421696 -0.000000
v -0.103536 1.421696 -0.033641
v -0.088073 1.421696 -0.063989
v -0.063989 1.421696 -0.088073
v -0.033641 1.421696 -0.103536
v 0.000000 1.421696 -0.108865
v 0.031898 1.424297 -0.098173
v 0.060674 1.424297 -0.083511
v 0.083511 1.424297 -0.060674
v 0.098173 1.424297 -0.031898
v 0.103225 1.424297 -0.000000
v 0.098173 1.424297 0.031898
v 0.083511 1.424297 0.060674
v 0.060674 1.424297 0.083511
v 0.031898 1.424297 0.098173
v 0.062810 1.399409 0.086451
v 0.033021 1.399409 0.101629
v 0.033641 1.421696 0.103536
v 0.063989 1.421696 0.088073
v 0.086451 1.399409 0.062810
v 0.088073 1.421696 0.063989
v 0.101629 1.399409 0.033021
v 0.103536 1.421696 0.033641
v 0.106859 1.399409 -0.000000
v 0.108864 1.421696 -0.000000
v 0.101629 1.399409 -0.033021
v 0.103536 1.421696 -0.033641
v 0.086451 1.399409 -0.062810
v 0.088073 1.421696 -0.063989
v 0.062810 1.399409 -0.086451
v 0.063989 1.421696 -0.088073
v 0.033021 1.399409 -0.101629
v 0.033641 1.421696 -0.103536
v 0.058798 1.392396 0.080928
v 0.030912 1.392396 0.095137
v 0.080928 1.392396 0.058798
v 0.095137 1.392396 0.030912
v 0.100033 1.392396 -0.000000
v 0.095137 1.392396 -0.030912
v 0.080928 1.392396 -0.058798
v 0.058798 1.392396 -0.080928
v 0.030912 1.392396 -0.095137
v 0.061205 1.387617 0.084242
v 0.032177 1.387617 0.099032
v 0.084242 1.387617 0.061205
v 0.099032 1.387617 0.032177
v 0.104129 1.387617 -0.000000
v 0.099032 1.387617 -0.032177
v 0.084242 1.387617 -0.061205
v 0.061205 1.387617 -0.084242
v 0.032178 1.387617 -0.099032
v 0.062141 1.114733 0.085530
v 0.032669 1.114733 0.100546
v 0.085530 1.114733 0.062141
v 0.100546 1.114733 0.032669
v 0.105720 1.114733 -0.000000
v 0.100546 1.114733 -0.032669
v 0.085530 1.114733 -0.062141
v 0.062141 1.114733 -0.085530
v 0.032669 1.114733 -0.100546
v -0.062132 1.117264 0.085518
v -0.085518 1.117264 0.062132
v -0.100532 1.117264 0.032665
v -0.105706 1.117264 -0.000000
v -0.100532 1.117264 -0.032665
v -0.085518 1.117264 -0.062132
v -0.062132 1.117264 -0.085518
v -0.032665 1.117264 -0.100532
v 0.000000 1.117264 -0.105706
v 0.032665 1.117264 -0.100532
v 0.062132 1.117264 -0.085518
v 0.085518 1.117264 -0.062132
v 0.100532 1.117264 -0.032665
v 0.105706 1.117264 -0.000000
v 0.100532 1.117264 0.032665
v 0.085518 1.117264 0.062132
v 0.062132 1.117264 0.085518
v 0.032665 1.117264 0.100532
v 0.000000 1.117264 0.105706
v -0.032665 1.117264 0.100532
v -0.057529 1.113233 0.079182
v -0.030245 1.113233 0.093085
v -0.079183 1.113233 0.057529
v -0.093085 1.113233 0.030245
v -0.097875 1.113233 -0.000000
v -0.093085 1.113233 -0.030245
v -0.079183 1.113233 -0.057529
v -0.057529 1.113233 -0.079183
v -0.030245 1.113233 -0.093085
v 0.000000 1.113233 -0.097875
v 0.000000 1.113233 0.097875
v 0.030245 1.113233 0.093085
v 0.057529 1.113233 0.079182
v 0.079183 1.113233 0.057529
v 0.093085 1.113233 0.030245
v 0.097875 1.113233 -0.000000
v 0.093085 1.113233 -0.030245
v 0.079183 1.113233 -0.057529
v 0.057529 1.113233 -0.079183
v 0.030245 1.113233 -0.093085
vt 0.767277 0.968226
vt 0.751312 0.965697
vt 0.767277 0.916560
vt 0.736909 0.958358
vt 0.725479 0.946928
vt 0.718140 0.932526
vt 0.715611 0.916560
vt 0.718140 0.900594
vt 0.725479 0.886191
vt 0.736909 0.874761
vt 0.751312 0.867423
vt 0.767277 0.864894
vt 0.462469 0.883004
vt 0.477378 0.883004
vt 0.477068 0.894159
vt 0.461878 0.894159
vt 0.076469 0.896015
vt 0.088302 0.896015
vt 0.089114 0.907169
vt 0.077059 0.907169
vt 0.061559 0.896015
vt 0.061870 0.907169
vt 0.045032 0.896015
vt 0.045032 0.907169
vt 0.028504 0.896015
vt 0.028194 0.907169
vt 0.013594 0.896015
vt 0.013004 0.907169
vt 0.001762 0.896015
vt 0.000950 0.907169
vt 0.109379 0.766114
vt 0.094469 0.766114
vt 0.093879 0.754959
vt 0.109068 0.754959
vt 0.125906 0.766114
vt 0.125906 0.754959
vt 0.493906 0.883004
vt 0.493906 0.894159
vt 0.464477 0.879494
vt 0.478434 0.879494
vt 0.074461 0.892504
vt 0.085538 0.892504
vt 0.060504 0.892504
vt 0.045032 0.892504
vt 0.029560 0.892504
vt 0.015602 0.892504
vt 0.004526 0.892504
vt 0.110434 0.769625
vt 0.096477 0.769625
vt 0.125906 0.769625
vt 0.493906 0.879494
vt 0.463272 0.877102
vt 0.477801 0.877102
vt 0.075666 0.890112
vt 0.087196 0.890112
vt 0.061137 0.890112
vt 0.045032 0.890112
vt 0.028926 0.890112
vt 0.014398 0.890112
vt 0.002867 0.890112
vt 0.109801 0.772017
vt 0.095272 0.772017
vt 0.125906 0.772017
vt 0.493906 0.877102
vt 0.462803 0.740519
vt 0.477554 0.740519
vt 0.477557 0.741785
vt 0.462808 0.741785
vt 0.076134 0.753529
vt 0.087841 0.753529
vt 0.087835 0.754795
vt 0.076130 0.754795
vt 0.061383 0.753529
vt 0.061381 0.754795
vt 0.045032 0.753529
vt 0.045032 0.754795
vt 0.028680 0.753529
vt 0.028682 0.754795
vt 0.013929 0.753529
vt 0.013934 0.754795
vt 0.002223 0.753529
vt 0.002229 0.754795
vt 0.109555 0.908600
vt 0.094804 0.908600
vt 0.094808 0.907333
vt 0.109557 0.907333
vt 0.125906 0.908600
vt 0.125906 0.907333
vt 0.493906 0.740519
vt 0.493906 0.741785
vt 0.288648 0.974881
vt 0.295606 0.961225
vt 0.299341 0.962439
vt 0.291825 0.977190
vt 0.277810 0.985719
vt 0.280118 0.988896
vt 0.264154 0.992678
vt 0.265367 0.996412
vt 0.249015 0.995075
vt 0.249015 0.999002
vt 0.233877 0.992678
vt 0.232664 0.996412
vt 0.220221 0.985719
vt 0.217913 0.988896
vt 0.209383 0.974881
vt 0.206206 0.977190
vt 0.202425 0.961225
vt 0.198690 0.962439
vt 0.200027 0.946087
vt 0.196100 0.946087
vt 0.298004 0.946087
vt 0.301930 0.946087
vt 0.750439 0.864738
vt 0.767277 0.862071
vt 0.735250 0.872478
vt 0.723195 0.884532
vt 0.715455 0.899722
vt 0.712789 0.916560
vt 0.715455 0.933398
vt 0.723195 0.948588
vt 0.735250 0.960642
vt 0.750439 0.968382
vt 0.767277 0.971049
vt 0.783243 0.965697
vt 0.797646 0.958358
vt 0.809076 0.946928
vt 0.816414 0.932526
vt 0.818943 0.916560
vt 0.816414 0.900594
vt 0.809076 0.886191
vt 0.797646 0.874761
vt 0.783243 0.867423
vt 0.525344 0.883004
vt 0.525934 0.894159
vt 0.510744 0.894159
vt 0.510434 0.883004
vt 0.541433 0.953630
vt 0.540843 0.964785
vt 0.528788 0.964785
vt 0.529600 0.953630
vt 0.556343 0.953630
vt 0.556033 0.964785
vt 0.572870 0.953630
vt 0.572870 0.964785
vt 0.589398 0.953630
vt 0.589708 0.964785
vt 0.604308 0.953630
vt 0.604898 0.964785
vt 0.616140 0.953630
vt 0.616953 0.964785
vt 0.142434 0.766114
vt 0.142744 0.754959
vt 0.157934 0.754959
vt 0.157344 0.766114
vt 0.523335 0.879494
vt 0.509378 0.879494
vt 0.543441 0.950120
vt 0.532364 0.950120
vt 0.557398 0.950120
vt 0.572870 0.950120
vt 0.588342 0.950120
vt 0.602300 0.950120
vt 0.613376 0.950120
vt 0.141378 0.769625
vt 0.155336 0.769625
vt 0.524540 0.877102
vt 0.510011 0.877102
vt 0.542236 0.947728
vt 0.530706 0.947728
vt 0.556765 0.947728
vt 0.572870 0.947728
vt 0.588976 0.947728
vt 0.603504 0.947728
vt 0.615035 0.947728
vt 0.142012 0.772017
vt 0.156541 0.772017
vt 0.525009 0.740519
vt 0.525004 0.741785
vt 0.510255 0.741785
vt 0.510258 0.740519
vt 0.541768 0.811145
vt 0.541772 0.812411
vt 0.530067 0.812411
vt 0.530061 0.811145
vt 0.556519 0.811145
vt 0.556521 0.812411
vt 0.572870 0.811145
vt 0.572870 0.812411
vt 0.589222 0.811145
vt 0.589220 0.812411
vt 0.603973 0.811145
vt 0.603969 0.812411
vt 0.615680 0.811145
vt 0.615673 0.812411
vt 0.142258 0.908600
vt 0.142256 0.907333
vt 0.157005 0.907333
vt 0.157009 0.908600
vt 0.288648 0.917292
vt 0.291825 0.914984
vt 0.299341 0.929735
vt 0.295606 0.930949
vt 0.277810 0.906455
vt 0.280118 0.903278
vt 0.264154 0.899496
vt 0.265367 0.895762
vt 0.249015 0.897099
vt 0.249015 0.893172
vt 0.233877 0.899496
vt 0.232664 0.895762
vt 0.220221 0.906455
vt 0.217913 0.903278
vt 0.209383 0.917292
vt 0.206206 0.914984
vt 0.202425 0.930949
vt 0.198690 0.929735
vt 0.784115 0.864738
vt 0.799305 0.872478
vt 0.811359 0.884532
vt 0.819099 0.899722
vt 0.821766 0.916560
vt 0.819099 0.933398
vt 0.811359 0.948588
vt 0.799305 0.960642
vt 0.784115 0.968382
vn 0.000000 0.998479 -0.055140
vn -0.017039 0.998479 -0.052442
vn 0.000000 1.000000 0.000000
vn -0.032411 0.998479 -0.044608
vn -0.044610 0.998479 -0.032409
vn -0.052442 0.998479 -0.017039
vn -0.055140 0.998479 -0.000000
vn -0.052442 0.998479 0.017039
vn -0.044610 0.998479 0.032409
vn -0.032411 0.998479 0.044609
vn -0.017039 0.998479 0.052443
vn 0.000000 0.998479 0.055140
vn -0.565677 -0.271687 0.778586
vn -0.297394 -0.271686 0.915283
vn -0.306628 0.124122 0.943702
vn -0.583241 0.124120 0.802761
vn -0.778586 -0.271687 0.565677
vn -0.802760 0.124119 0.583241
vn -0.915283 -0.271686 0.297394
vn -0.943702 0.124120 0.306627
vn -0.962387 -0.271684 0.000000
vn -0.992267 0.124122 -0.000000
vn -0.915284 -0.271686 -0.297393
vn -0.943702 0.124120 -0.306627
vn -0.778586 -0.271688 -0.565676
vn -0.802761 0.124119 -0.583240
vn -0.565676 -0.271688 -0.778586
vn -0.583241 0.124119 -0.802760
vn -0.297394 -0.271686 -0.915283
vn -0.306627 0.124120 -0.943702
vn 0.000000 -0.271685 -0.962386
vn 0.000000 0.124121 -0.992267
vn -0.000000 -0.271684 0.962387
vn -0.000000 0.124123 0.992267
vn -0.421213 -0.697474 0.579749
vn -0.221446 -0.697476 0.681535
vn -0.579749 -0.697474 0.421213
vn -0.681538 -0.697473 0.221444
vn -0.716613 -0.697472 -0.000000
vn -0.681538 -0.697474 -0.221443
vn -0.579749 -0.697475 -0.421212
vn -0.421213 -0.697475 -0.579749
vn -0.221446 -0.697474 -0.681536
vn -0.000000 -0.697472 -0.716612
vn -0.000000 -0.697474 0.716610
vn -0.587676 0.019295 0.808866
vn -0.308959 0.019295 0.950880
vn -0.234626 0.650787 0.722099
vn -0.446282 0.650786 0.614255
vn -0.808866 0.019295 0.587676
vn -0.614255 0.650786 0.446284
vn -0.950879 0.019295 0.308960
vn -0.722100 0.650785 0.234628
vn -0.999814 0.019295 0.000000
vn -0.759264 0.650783 -0.000000
vn -0.950879 0.019295 -0.308960
vn -0.722100 0.650786 -0.234626
vn -0.808867 0.019296 -0.587676
vn -0.614256 0.650786 -0.446281
vn -0.587676 0.019296 -0.808866
vn -0.446284 0.650787 -0.614254
vn -0.308960 0.019295 -0.950879
vn -0.234627 0.650789 -0.722097
vn 0.000000 0.019295 -0.999814
vn 0.000000 0.650790 -0.759258
vn 0.000000 0.019295 0.999814
vn 0.000000 0.650788 0.759260
vn -0.288604 -0.871158 0.397229
vn -0.151729 -0.871158 0.466972
vn -0.309011 0.005834 0.951040
vn -0.587776 0.005834 0.809003
vn -0.397231 -0.871157 0.288605
vn -0.809003 0.005834 0.587775
vn -0.466975 -0.871156 0.151728
vn -0.951040 0.005834 0.309013
vn -0.491007 -0.871155 0.000000
vn -0.999983 0.005834 0.000000
vn -0.466975 -0.871156 -0.151728
vn -0.951040 0.005834 -0.309012
vn -0.397231 -0.871158 -0.288603
vn -0.809003 0.005834 -0.587775
vn -0.288606 -0.871159 -0.397227
vn -0.587775 0.005834 -0.809003
vn -0.151730 -0.871157 -0.466972
vn -0.309012 0.005834 -0.951040
vn 0.000000 -0.871155 -0.491009
vn 0.000000 0.005834 -0.999983
vn -0.000000 -0.871156 0.491007
vn 0.000000 0.005834 0.999983
vn -0.110354 -0.982218 0.151887
vn -0.058016 -0.982218 0.178555
vn -0.151890 -0.982218 0.110353
vn -0.178558 -0.982217 0.058016
vn -0.187747 -0.982217 -0.000000
vn -0.178558 -0.982218 -0.058016
vn -0.151889 -0.982218 -0.110352
vn -0.110354 -0.982218 -0.151887
vn -0.058017 -0.982218 -0.178555
vn -0.000000 -0.982218 -0.187745
vn 0.000000 -0.982218 0.187745
vn 0.017039 0.998479 -0.052442
vn 0.032411 0.998479 -0.044609
vn 0.044610 0.998479 -0.032410
vn 0.052442 0.998479 -0.017040
vn 0.055140 0.998479 -0.000000
vn 0.052442 0.998479 0.017040
vn 0.044610 0.998479 0.032409
vn 0.032411 0.998479 0.044609
vn 0.017039 0.998479 0.052442
vn 0.565677 -0.271687 0.778586
vn 0.583241 0.124120 0.802760
vn 0.306628 0.124121 0.943702
vn 0.297394 -0.271686 0.915283
vn 0.778586 -0.271687 0.565677
vn 0.802761 0.124120 0.583240
vn 0.915283 -0.271686 0.297394
vn 0.943702 0.124120 0.306627
vn 0.962386 -0.271684 -0.000000
vn 0.992267 0.124122 -0.000000
vn 0.915283 -0.271686 -0.297394
vn 0.943702 0.124120 -0.306628
vn 0.778586 -0.271688 -0.565676
vn 0.802761 0.124119 -0.583241
vn 0.565676 -0.271688 -0.778586
vn 0.583240 0.124119 -0.802761
vn 0.297394 -0.271687 -0.915283
vn 0.306627 0.124120 -0.943702
vn 0.421213 -0.697475 0.579748
vn 0.221446 -0.697475 0.681535
vn 0.579750 -0.697474 0.421213
vn 0.681538 -0.697473 0.221445
vn 0.716613 -0.697471 -0.000001
vn 0.681537 -0.697473 -0.221445
vn 0.579749 -0.697475 -0.421212
vn 0.421213 -0.697476 -0.579747
vn 0.221446 -0.697475 -0.681535
vn 0.587676 0.019295 0.808866
vn 0.446283 0.650787 0.614254
vn 0.234626 0.650788 0.722098
vn 0.308959 0.019295 0.950879
vn 0.808867 0.019295 0.587676
vn 0.614256 0.650787 0.446281
vn 0.950879 0.019295 0.308960
vn 0.722100 0.650785 0.234627
vn 0.999814 0.019295 0.000000
vn 0.759264 0.650783 0.000001
vn 0.950879 0.019295 -0.308960
vn 0.722100 0.650786 -0.234626
vn 0.808867 0.019296 -0.587676
vn 0.614256 0.650787 -0.446281
vn 0.587676 0.019296 -0.808866
vn 0.446284 0.650786 -0.614255
vn 0.308960 0.019295 -0.950879
vn 0.234626 0.650788 -0.722098
vn 0.288604 -0.871158 0.397229
vn 0.587776 0.005834 0.809003
vn 0.309011 0.005834 0.951040
vn 0.151729 -0.871157 0.466973
vn 0.397231 -0.871157 0.288604
vn 0.809003 0.005834 0.587775
vn 0.466975 -0.871156 0.151727
vn 0.951040 0.005834 0.309013
vn 0.491008 -0.871155 0.000000
vn 0.999983 0.005834 -0.000000
vn 0.466975 -0.871156 -0.151727
vn 0.951040 0.005834 -0.309012
vn 0.397231 -0.871158 -0.288601
vn 0.809003 0.005834 -0.587775
vn 0.288605 -0.871159 -0.397226
vn 0.587775 0.005834 -0.809003
vn 0.151730 -0.871157 -0.466973
vn 0.309012 0.005834 -0.951040
vn 0.110354 -0.982218 0.151887
vn 0.058016 -0.982218 0.178556
vn 0.151890 -0.982218 0.110350
vn 0.178558 -0.982217 0.058015
vn 0.187747 -0.982217 0.000000
vn 0.178558 -0.982217 -0.058015
vn 0.151889 -0.982218 -0.110350
vn 0.110354 -0.982218 -0.151884
vn 0.058017 -0.982218 -0.178554
s 1
g capmesh
usemtl CapSG
f 1/1/1 2/2/2 12/3/3
f 2/2/2 3/4/4 12/3/3
f 3/4/4 4/5/5 12/3/3
f 4/5/5 5/6/6 12/3/3
f 5/6/6 6/7/7 12/3/3
f 6/7/7 7/8/8 12/3/3
f 7/8/8 8/9/9 12/3/3
f 8/9/9 9/10/10 12/3/3
f 9/10/10 10/11/11 12/3/3
f 10/11/11 11/12/12 12/3/3
f 14/13/13 13/14/14 58/15/15 59/16/16
f 15/17/17 14/18/13 59/19/16 60/20/18
f 16/21/19 15/17/17 60/20/18 61/22/20
f 17/23/21 16/21/19 61/22/20 62/24/22
f 18/25/23 17/23/21 62/24/22 63/26/24
f 19/27/25 18/25/23 63/26/24 64/28/26
f 20/29/27 19/27/25 64/28/26 65/30/28
f 21/31/29 20/32/27 65/33/28 66/34/30
f 22/35/31 21/31/29 66/34/30 67/36/32
f 13/14/14 23/37/33 57/38/34 58/15/15
f 25/39/35 24/40/36 13/14/14 14/13/13
f 26/41/37 25/42/35 14/18/13 15/17/17
f 27/43/38 26/41/37 15/17/17 16/21/19
f 28/44/39 27/43/38 16/21/19 17/23/21
f 29/45/40 28/44/39 17/23/21 18/25/23
f 30/46/41 29/45/40 18/25/23 19/27/25
f 31/47/42 30/46/41 19/27/25 20/29/27
f 32/48/43 31/49/42 20/32/27 21/31/29
f 33/50/44 32/48/43 21/31/29 22/35/31
f 24/40/36 34/51/45 23/37/33 13/14/14
s 3
f 36/52/46 35/53/47 24/40/48 25/39/49
f 37/54/50 36/55/46 25/42/49 26/41/51
f 38/56/52 37/54/50 26/41/51 27/43/53
f 39/57/54 38/56/52 27/43/53 28/44/55
f 40/58/56 39/57/54 28/44/55 29/45/57
f 41/59/58 40/58/56 29/45/57 30/46/59
f 42/60/60 41/59/58 30/46/59 31/47/61
f 43/61/62 42/62/60 31/49/61 32/48/63
f 44/63/64 43/61/62 32/48/63 33/50/65
f 35/53/47 45/64/66 34/51/67 24/40/48
f 47/65/68 46/66/69 141/67/70 122/68/71
f 48/69/72 47/70/68 122/71/71 123/72/73
f 49/73/74 48/69/72 123/72/73 124/74/75
f 50/75/76 49/73/74 124/74/75 125/76/77
f 51/77/78 50/75/76 125/76/77 126/78/79
f 52/79/80 51/77/78 126/78/79 127/80/81
f 53/81/82 52/79/80 127/80/81 128/82/83
f 54/83/84 53/84/82 128/85/83 129/86/85
f 55/87/86 54/83/84 129/86/85 130/88/87
f 46/66/69 56/89/88 140/90/89 141/67/70
f 142/91/90 143/92/91 46/93/69 47/94/68
f 144/95/92 142/91/90 47/94/68 48/96/72
f 145/97/93 144/95/92 48/96/72 49/98/74
f 146/99/94 145/97/93 49/98/74 50/100/76
f 147/101/95 146/99/94 50/100/76 51/102/78
f 148/103/96 147/101/95 51/102/78 52/104/80
f 149/105/97 148/103/96 52/104/80 53/106/82
f 150/107/98 149/105/97 53/106/82 54/108/84
f 151/109/99 150/107/98 54/108/84 55/110/86
f 143/92/91 152/111/100 56/112/88 46/93/69
s 1
f 58/113/15 57/114/34 11/12/12 10/11/11
f 59/115/16 58/113/15 10/11/11 9/10/10
f 60/116/18 59/115/16 9/10/10 8/9/9
f 61/117/20 60/116/18 8/9/9 7/8/8
f 62/118/22 61/117/20 7/8/8 6/7/7
f 63/119/24 62/118/22 6/7/7 5/6/6
f 64/120/26 63/119/24 5/6/6 4/5/5
f 65/121/28 64/120/26 4/5/5 3/4/4
f 66/122/30 65/121/28 3/4/4 2/2/2
f 67/123/32 66/122/30 2/2/2 1/1/1
f 1/1/1 12/3/3 68/124/101
f 68/124/101 12/3/3 69/125/102
f 69/125/102 12/3/3 70/126/103
f 70/126/103 12/3/3 71/127/104
f 71/127/104 12/3/3 72/128/105
f 72/128/105 12/3/3 73/129/106
f 73/129/106 12/3/3 74/130/107
f 74/130/107 12/3/3 75/131/108
f 75/131/108 12/3/3 76/132/109
f 76/132/109 12/3/3 11/12/12
f 77/133/110 80/134/111 79/135/112 78/136/113
f 81/137/114 82/138/115 80/139/111 77/140/110
f 83/141/116 84/142/117 82/138/115 81/137/114
f 85/143/118 86/144/119 84/142/117 83/141/116
f 87/145/120 88/146/121 86/144/119 85/143/118
f 89/147/122 90/148/123 88/146/121 87/145/120
f 91/149/124 92/150/125 90/148/123 89/147/122
f 93/151/126 94/152/127 92/153/125 91/154/124
f 22/35/31 67/36/32 94/152/127 93/151/126
f 78/136/113 79/135/112 57/38/34 23/37/33
f 95/155/128 77/133/110 78/136/113 96/156/129
f 97/157/130 81/137/114 77/140/110 95/158/128
f 98/159/131 83/141/116 81/137/114 97/157/130
f 99/160/132 85/143/118 83/141/116 98/159/131
f 100/161/133 87/145/120 85/143/118 99/160/132
f 101/162/134 89/147/122 87/145/120 100/161/133
f 102/163/135 91/149/124 89/147/122 101/162/134
f 103/164/136 93/151/126 91/154/124 102/165/135
f 33/50/44 22/35/31 93/151/126 103/164/136
f 96/156/129 78/136/113 23/37/33 34/51/45
s 3
f 104/166/137 95/155/138 96/156/139 105/167/140
f 106/168/141 97/157/142 95/158/138 104/169/137
f 107/170/143 98/159/144 97/157/142 106/168/141
f 108/171/145 99/160/146 98/159/144 107/170/143
f 109/172/147 100/161/148 99/160/146 108/171/145
f 110/173/149 101/162/150 100/161/148 109/172/147
f 111/174/151 102/163/152 101/162/150 110/173/149
f 112/175/153 103/164/154 102/165/152 111/176/151
f 44/63/64 33/50/65 103/164/154 112/175/153
f 105/167/140 96/156/139 34/51/67 45/64/66
f 113/177/155 138/178/156 139/179/157 114/180/158
f 115/181/159 137/182/160 138/183/156 113/184/155
f 116/185/161 136/186/162 137/182/160 115/181/159
f 117/187/163 135/188/164 136/186/162 116/185/161
f 118/189/165 134/190/166 135/188/164 117/187/163
f 119/191/167 133/192/168 134/190/166 118/189/165
f 120/193/169 132/194/170 133/192/168 119/191/167
f 121/195/171 131/196/172 132/197/170 120/198/169
f 55/87/86 130/88/87 131/196/172 121/195/171
f 114/180/158 139/179/157 140/90/89 56/89/88
f 154/199/173 113/200/155 114/201/158 153/202/174
f 155/203/175 115/204/159 113/200/155 154/199/173
f 156/205/176 116/206/161 115/204/159 155/203/175
f 157/207/177 117/208/163 116/206/161 156/205/176
f 158/209/178 118/210/165 117/208/163 157/207/177
f 159/211/179 119/212/167 118/210/165 158/209/178
f 160/213/180 120/214/169 119/212/167 159/211/179
f 161/215/181 121/216/171 120/214/169 160/213/180
f 151/109/99 55/110/86 121/216/171 161/215/181
f 153/202/174 114/201/158 56/112/88 152/111/100
s 1
f 79/217/112 76/132/109 11/12/12 57/114/34
f 80/218/111 75/131/108 76/132/109 79/217/112
f 82/219/115 74/130/107 75/131/108 80/218/111
f 84/220/117 73/129/106 74/130/107 82/219/115
f 86/221/119 72/128/105 73/129/106 84/220/117
f 88/222/121 71/127/104 72/128/105 86/221/119
f 90/223/123 70/126/103 71/127/104 88/222/121
f 92/224/125 69/125/102 70/126/103 90/223/123
f 94/225/127 68/124/101 69/125/102 92/224/125
f 67/123/32 1/1/1 68/124/101 94/225/127
s 3
f 123/72/73 122/71/71 36/55/46 37/54/50
f 124/74/75 123/72/73 37/54/50 38/56/52
f 125/76/77 124/74/75 38/56/52 39/57/54
f 126/78/79 125/76/77 39/57/54 40/58/56
f 127/80/81 126/78/79 40/58/56 41/59/58
f 128/82/83 127/80/81 41/59/58 42/60/60
f 129/86/85 128/85/83 42/62/60 43/61/62
f 130/88/87 129/86/85 43/61/62 44/63/64
f 131/196/172 130/88/87 44/63/64 112/175/153
f 132/197/170 131/196/172 112/175/153 111/176/151
f 133/192/168 132/194/170 111/174/151 110/173/149
f 134/190/166 133/192/168 110/173/149 109/172/147
f 135/188/164 134/190/166 109/172/147 108/171/145
f 136/186/162 135/188/164 108/171/145 107/170/143
f 137/182/160 136/186/162 107/170/143 106/168/141
f 138/183/156 137/182/160 106/168/141 104/169/137
f 139/179/157 138/178/156 104/166/137 105/167/140
f 140/90/89 139/179/157 105/167/140 45/64/66
f 141/67/70 140/90/89 45/64/66 35/53/47
f 122/68/71 141/67/70 35/53/47 36/52/46
