# Blender v2.77 (sub 0) OBJ File: 'shots.blend'
# www.blender.org
mtllib shots.mtl
o Shots_Cube.001
v 7.123427 -0.196971 2.889866
v 7.123427 -0.196971 5.066557
v 7.123427 1.384775 2.889866
v 7.123427 1.384775 5.066557
v 7.339247 -0.284467 2.807053
v 7.339247 -0.284467 5.149370
v 7.339247 1.472271 2.807053
v 7.339247 1.472271 5.149370
v 7.123427 -0.284467 2.807053
v 7.123427 -0.284467 5.149370
v 7.123427 1.472271 5.149370
v 7.123427 1.472271 2.807053
v 7.232891 -0.196973 2.889866
v 7.232891 -0.196973 5.066557
v 7.232891 1.384773 5.066557
v 7.232891 1.384773 2.889866
vt 0.7774 0.0798
vt 0.2226 0.0798
vt 0.2226 0.1171
vt 0.7774 0.1171
vt 0.8269 0.9120
vt 0.8699 0.9120
vt 0.8699 0.0880
vt 0.8269 0.0880
vt 0.1301 0.9120
vt 0.1731 0.9120
vt 0.1731 0.0880
vt 0.1301 0.0880
vt 0.1919 0.0620
vt 0.8081 0.0620
vt 0.8081 0.0000
vt 0.1919 0.0000
vt 0.1919 1.0000
vt 0.8081 1.0000
vt 0.8081 0.9380
vt 0.1919 0.9380
vt 0.1917 0.8829
vt 0.1917 0.1171
vt 0.7774 0.9202
vt 0.2226 0.9202
vt 0.8083 0.1171
vt 0.8083 0.8829
vt 0.2226 0.8829
vt 0.7774 0.8829
vn 0.0000 0.0000 1.0000
vn 0.0000 1.0000 -0.0000
vn 0.0000 -1.0000 0.0000
vn 0.0000 0.0000 -1.0000
vn -1.0000 0.0000 0.0000
usemtl Material
s off
f 3/1/1 1/2/1 13/3/1 16/4/1
f 11/5/2 8/6/2 7/7/2 12/8/2
f 6/9/3 10/10/3 9/11/3 5/12/3
f 9/13/4 12/14/4 7/15/4 5/16/4
f 6/17/1 8/18/1 11/19/1 10/20/1
f 2/21/5 1/22/5 9/11/5 10/10/5
f 4/23/5 2/24/5 10/20/5 11/19/5
f 3/25/5 4/26/5 11/5/5 12/8/5
f 1/2/5 3/1/5 12/14/5 9/13/5
f 14/27/5 15/28/5 16/4/5 13/3/5
f 2/24/4 4/23/4 15/28/4 14/27/4
f 4/26/3 3/25/3 16/4/3 15/28/3
f 1/22/2 2/21/2 14/27/2 13/3/2
